<svg width="123" height="42" viewBox="0 0 123 42" fill="none" xmlns="http://www.w3.org/2000/svg">
<g clip-path="url(#clip0_8_48)">
<path d="M10.6778 1.75378H113.55C118.19 1.75378 121.835 5.7269 121.436 10.3496L119.962 27.4129C119.61 31.4886 116.21 34.6245 112.119 34.6463L9.80112 35.1938C4.95871 35.2197 1.12466 31.1079 1.48862 26.2791L2.78545 9.07361C3.09665 4.94492 6.53736 1.75378 10.6778 1.75378Z" fill="#61AFFF" stroke="black" stroke-width="1.50756"/>
<mask id="mask0_8_48" style="mask-type:alpha" maskUnits="userSpaceOnUse" x="0" y="1" width="124" height="35">
<path d="M10.6943 1.75378H114.544C119.186 1.75378 122.831 5.73048 122.429 10.3551L120.943 27.418C120.588 31.4915 117.189 34.6243 113.1 34.646L9.80673 35.1942C4.96245 35.2199 1.12792 31.1049 1.49496 26.2745L2.80235 9.0688C3.11592 4.94215 6.55575 1.75378 10.6943 1.75378Z" fill="#F3BC00" stroke="black" stroke-width="1.50756"/>
</mask>
<g mask="url(#mask0_8_48)">
<g style="mix-blend-mode:overlay" opacity="0.7">
<rect x="4.34489" y="1.37689" width="115.31" height="3.24622" fill="white"/>
<rect x="4.34489" y="1.37689" width="115.31" height="3.24622" stroke="black" stroke-width="0.753781"/>
</g>
<g style="mix-blend-mode:overlay" opacity="0.7">
<path d="M4.37689 31.9257H118.828L116.334 34.6241L4.37689 35.2956V31.9257Z" fill="black"/>
<path d="M4.37689 31.9257H118.828L116.334 34.6241L4.37689 35.2956V31.9257Z" stroke="black" stroke-width="0.753781"/>
</g>
<g filter="url(#filter0_dd_8_48)">
<path d="M10.6779 1.75378H113.558C118.198 1.75378 121.843 5.72692 121.444 10.3497L119.97 27.4129C119.618 31.4886 116.218 34.6245 112.127 34.6463L9.80116 35.1938C4.95874 35.2197 1.12468 31.1079 1.48867 26.2791L2.78559 9.07358C3.0968 4.94489 6.53751 1.75378 10.6779 1.75378Z" stroke="black" stroke-width="1.50756" shape-rendering="crispEdges"/>
</g>
</g>
</g>
<defs>
<filter id="filter0_dd_8_48" x="-0.796656" y="1" width="124.532" height="41.7317" filterUnits="userSpaceOnUse" color-interpolation-filters="sRGB">
<feFlood flood-opacity="0" result="BackgroundImageFix"/>
<feColorMatrix in="SourceAlpha" type="matrix" values="0 0 0 0 0 0 0 0 0 0 0 0 0 0 0 0 0 0 127 0" result="hardAlpha"/>
<feOffset dy="1.50756"/>
<feComposite in2="hardAlpha" operator="out"/>
<feColorMatrix type="matrix" values="0 0 0 0 0 0 0 0 0 0 0 0 0 0 0 0 0 0 1 0"/>
<feBlend mode="normal" in2="BackgroundImageFix" result="effect1_dropShadow_8_48"/>
<feColorMatrix in="SourceAlpha" type="matrix" values="0 0 0 0 0 0 0 0 0 0 0 0 0 0 0 0 0 0 127 0" result="hardAlpha"/>
<feOffset dy="5.27647"/>
<feGaussianBlur stdDeviation="0.753781"/>
<feComposite in2="hardAlpha" operator="out"/>
<feColorMatrix type="matrix" values="0 0 0 0 0 0 0 0 0 0 0 0 0 0 0 0 0 0 0.25 0"/>
<feBlend mode="normal" in2="effect1_dropShadow_8_48" result="effect2_dropShadow_8_48"/>
<feBlend mode="normal" in="SourceGraphic" in2="effect2_dropShadow_8_48" result="shape"/>
</filter>
<clipPath id="clip0_8_48">
<rect width="123" height="42" fill="white"/>
</clipPath>
</defs>
</svg>
