<svg width="336" height="55" viewBox="0 0 336 55" fill="none" xmlns="http://www.w3.org/2000/svg">
<path d="M17.5224 2.69725H320.766C327.772 2.69725 333.091 9.00575 331.906 15.911L327.936 39.0575C327.007 44.4719 322.319 48.4344 316.826 48.4492L13.966 49.2651C7.04501 49.2838 1.73278 43.134 2.75735 36.2892L6.34422 12.3268C7.17266 6.79229 11.9263 2.69725 17.5224 2.69725Z" fill="#F3BC00" stroke="black" stroke-width="1.3945"/>
<mask id="mask0_29_2" style="mask-type:alpha" maskUnits="userSpaceOnUse" x="1" y="2" width="332" height="48">
<path d="M5.65465 12.2235C6.5342 6.34766 11.5811 2 17.5224 2H320.766C328.205 2 333.851 8.69767 332.593 16.0289L328.623 39.1754C327.637 44.9238 322.66 49.1307 316.828 49.1464L13.9679 49.9624C6.61995 49.9822 0.980006 43.453 2.06779 36.186L5.65465 12.2235Z" fill="#F3BC00"/>
</mask>
<g mask="url(#mask0_29_2)">
<g style="mix-blend-mode:overlay" opacity="0.7">
<rect x="1.75867" y="2" width="329.759" height="5.72477" rx="2.86239" fill="white"/>
</g>
<g style="mix-blend-mode:overlay" opacity="0.7">
<rect x="-1.75879" y="44.2754" width="329.759" height="5.72477" rx="2.86239" fill="black"/>
</g>
</g>
</svg>
