<svg width="18" height="18" viewBox="0 0 18 18" fill="none" xmlns="http://www.w3.org/2000/svg">
<path d="M17.2929 3.98086C17.6834 3.59033 17.6834 2.95717 17.2929 2.56664L15.4334 0.707107C15.0428 0.316583 14.4097 0.316582 14.0191 0.707107L9.70711 5.01914C9.31658 5.40967 8.68342 5.40967 8.29289 5.01914L3.98086 0.707107C3.59033 0.316582 2.95717 0.316582 2.56664 0.707107L0.707107 2.56664C0.316583 2.95717 0.316582 3.59033 0.707107 3.98086L5.01914 8.29289C5.40967 8.68342 5.40967 9.31658 5.01914 9.70711L0.707107 14.0191C0.316582 14.4097 0.316582 15.0428 0.707107 15.4334L2.56664 17.2929C2.95717 17.6834 3.59033 17.6834 3.98086 17.2929L8.29289 12.9809C8.68342 12.5903 9.31658 12.5903 9.70711 12.9809L14.0191 17.2929C14.4097 17.6834 15.0428 17.6834 15.4334 17.2929L17.2929 15.4334C17.6834 15.0428 17.6834 14.4097 17.2929 14.0191L12.9809 9.70711C12.5903 9.31658 12.5903 8.68342 12.9809 8.29289L17.2929 3.98086Z" fill="white"/>
</svg>
