<svg width="20" height="21" viewBox="0 0 20 21" fill="none" xmlns="http://www.w3.org/2000/svg">
<g filter="url(#filter0_d_3634_41861)">
<path d="M1.5 19C1.22386 19 1 18.7761 1 18.5V14.9574C1 14.8246 1.05281 14.6973 1.14678 14.6035L14.2 1.575C14.4 1.39167 14.621 1.25 14.863 1.15C15.105 1.05 15.359 1 15.625 1C15.891 1 16.1493 1.05 16.4 1.15C16.6507 1.25 16.8673 1.4 17.05 1.6L18.425 3C18.625 3.18333 18.771 3.4 18.863 3.65C18.955 3.9 19.0007 4.15 19 4.4C19 4.66667 18.9543 4.921 18.863 5.163C18.7717 5.405 18.6257 5.62567 18.425 5.825L5.39645 18.8536C5.30268 18.9473 5.1755 19 5.04289 19H1.5ZM15.2464 5.44645C15.4417 5.64171 15.7583 5.64171 15.9536 5.44645L16.6464 4.75355C16.8417 4.55829 16.8417 4.24171 16.6464 4.04645L15.9536 3.35355C15.7583 3.15829 15.4417 3.15829 15.2464 3.35355L14.5536 4.04645C14.3583 4.24171 14.3583 4.55829 14.5536 4.75355L15.2464 5.44645Z" fill="#FEFDFB"/>
<path d="M14.0172 1.37559L14.0174 1.37577C14.2398 1.17185 14.4875 1.01273 14.7598 0.900216C15.035 0.786472 15.3242 0.72973 15.625 0.72973C15.9258 0.72973 16.2181 0.786449 16.5001 0.898968C16.7873 1.01352 17.0368 1.18584 17.2462 1.41401L18.613 2.80574C18.8414 3.01662 19.0103 3.2677 19.1166 3.55666C19.219 3.83479 19.271 4.11658 19.2703 4.40072M14.0172 1.37559L19 4.4M14.0172 1.37559L14.0091 1.38371L0.955853 14.4122C0.811084 14.5567 0.72973 14.7528 0.72973 14.9574V18.5C0.72973 18.9254 1.07459 19.2703 1.5 19.2703H5.04289C5.24718 19.2703 5.4431 19.1891 5.58756 19.0447L18.6155 6.01675M14.0172 1.37559L18.6155 6.01675M19.2703 4.40072L19 4.4M19.2703 4.40072C19.2703 4.40048 19.2703 4.40024 19.2703 4.4H19M19.2703 4.40072C19.2702 4.6987 19.219 4.98521 19.1159 5.25843C19.0097 5.53969 18.8413 5.79233 18.616 6.01622L18.6161 6.01611L18.425 5.825M19 4.4C19 4.66667 18.9543 4.921 18.863 5.163C18.7717 5.405 18.6257 5.62567 18.425 5.825M18.425 5.825L18.6155 6.01675M18.425 5.825L18.6155 6.01675M15.7624 5.25534C15.6727 5.34505 15.5273 5.34505 15.4376 5.25534L14.7447 4.56244C14.6549 4.47273 14.6549 4.32727 14.7447 4.23756L15.4376 3.54466C15.5273 3.45495 15.6727 3.45495 15.7624 3.54466L16.4553 4.23756C16.5451 4.32727 16.5451 4.47273 16.4553 4.56244L15.7624 5.25534Z" stroke="#060000" stroke-width="0.540541"/>
</g>
<defs>
<filter id="filter0_d_3634_41861" x="0.459473" y="0.459473" width="19.0811" height="20.1621" filterUnits="userSpaceOnUse" color-interpolation-filters="sRGB">
<feFlood flood-opacity="0" result="BackgroundImageFix"/>
<feColorMatrix in="SourceAlpha" type="matrix" values="0 0 0 0 0 0 0 0 0 0 0 0 0 0 0 0 0 0 127 0" result="hardAlpha"/>
<feOffset dy="1.08108"/>
<feComposite in2="hardAlpha" operator="out"/>
<feColorMatrix type="matrix" values="0 0 0 0 0.0313726 0 0 0 0 0.00784314 0 0 0 0 0.0235294 0 0 0 1 0"/>
<feBlend mode="normal" in2="BackgroundImageFix" result="effect1_dropShadow_3634_41861"/>
<feBlend mode="normal" in="SourceGraphic" in2="effect1_dropShadow_3634_41861" result="shape"/>
</filter>
</defs>
</svg>
