<svg width="20" height="20" viewBox="0 0 20 20" fill="none" xmlns="http://www.w3.org/2000/svg">
<path d="M11.5858 0.552505C11.1853 0.204423 10.6746 0.00911091 10.144 0.00107625C9.61339 -0.0069584 9.09703 0.172801 8.68614 0.508596L1.85068 6.10074C1.59697 6.30808 1.39161 6.56833 1.24894 6.86329C1.10628 7.15825 1.02976 7.48082 1.02473 7.80843L0.883844 17.1124C0.869218 18.0783 1.64126 18.874 2.60715 18.8887L5.6068 18.9341C6.07088 18.9411 6.51874 18.7635 6.85186 18.4403C7.18498 18.1171 7.37607 17.6749 7.3831 17.2108L7.44371 13.2082C7.454 12.5283 8.0043 11.9846 8.6795 11.9768L11.2452 12.0157C11.5708 12.0292 11.8782 12.1694 12.102 12.4063C12.3258 12.6432 12.4482 12.9581 12.4431 13.2839L12.3825 17.2865C12.3679 18.2524 13.1399 19.0482 14.1058 19.0628L17.1055 19.1082C17.5696 19.1152 18.0174 18.9376 18.3505 18.6144C18.6837 18.2913 18.8748 17.849 18.8818 17.3849L19.0227 8.07997C19.0276 7.75235 18.9609 7.42762 18.8272 7.12847C18.6935 6.82932 18.4961 6.56298 18.2488 6.34805L11.5858 0.552505Z" fill="#FEFDFB"/>
</svg>
