<svg width="43" height="39" viewBox="0 0 43 39" fill="none" xmlns="http://www.w3.org/2000/svg">
<path d="M12.3779 0.814899H32.4945C37.6057 0.814899 41.5768 5.26661 40.9955 10.3446L38.7406 30.0399C38.2528 34.3007 34.6861 37.5422 30.3982 37.6217L10.9906 37.9813C5.62229 38.0808 1.37134 33.4706 1.90507 28.1279L3.86381 8.52079C4.30081 4.14636 7.98166 0.814899 12.3779 0.814899Z" fill="#6E22BF" stroke="#360076" stroke-width="1.6298"/>
<mask id="mask0_13_2" style="mask-type:alpha" maskUnits="userSpaceOnUse" x="2" y="0" width="40" height="39">
<path d="M2.93336 9.16584C3.04509 4.07149 7.20687 0 12.3024 0H32.5523C37.8201 0 42.053 4.34063 41.9206 9.60682L41.4252 29.3151C41.2992 34.3306 37.2454 38.3571 32.2291 38.4493L12.4584 38.8128C6.9041 38.915 2.38043 34.3752 2.50225 28.8213L2.93336 9.16584Z" fill="#F3BC00"/>
</mask>
<g mask="url(#mask0_13_2)">
<g filter="url(#filter0_d_13_2)">
<path d="M22.5857 9.55252C22.1851 9.20444 21.6745 9.00913 21.1439 9.00109C20.6133 8.99306 20.0969 9.17282 19.686 9.50861L12.8506 15.1008C12.5969 15.3081 12.3915 15.5683 12.2488 15.8633C12.1062 16.1583 12.0296 16.4808 12.0246 16.8084L11.8837 26.1124C11.8691 27.0783 12.6411 27.874 13.607 27.8887L16.6067 27.9341C17.0708 27.9411 17.5186 27.7635 17.8517 27.4403C18.1849 27.1171 18.3759 26.6749 18.383 26.2108L18.4436 22.2083C18.4539 21.5283 19.0042 20.9846 19.6794 20.9768L22.2451 21.0157C22.5707 21.0292 22.8781 21.1694 23.1019 21.4063C23.3257 21.6432 23.4481 21.9581 23.443 22.284L23.3824 26.2865C23.3678 27.2524 24.1398 28.0482 25.1057 28.0628L28.1054 28.1082C28.5694 28.1152 29.0173 27.9376 29.3504 27.6145C29.6835 27.2913 29.8746 26.849 29.8817 26.3849L30.0226 17.08C30.0275 16.7524 29.9607 16.4276 29.8271 16.1285C29.6934 15.8293 29.496 15.563 29.2487 15.3481L22.5857 9.55252Z" fill="#FEFDFB"/>
</g>
<rect width="2.57672" height="7.12722" transform="matrix(0.301693 -0.953405 0.271616 0.962406 40.1304 -0.0488281)" fill="#FEFB9F"/>
<g style="mix-blend-mode:soft-light" opacity="0.7">
<path d="M3.51642 -0.0878906L33.6157 0.566057L38.7435 4.42148H3.51642V-0.0878906Z" fill="white"/>
</g>
<g style="mix-blend-mode:soft-light" opacity="0.7">
<path d="M2.45258 32.5H37.4215L32.9526 36.5L29.4526 37L2.45258 37.1514V32.5Z" fill="#360076"/>
</g>
</g>
<defs>
<filter id="filter0_d_13_2" x="10.8835" y="9.00084" width="20.1393" height="22.1076" filterUnits="userSpaceOnUse" color-interpolation-filters="sRGB">
<feFlood flood-opacity="0" result="BackgroundImageFix"/>
<feColorMatrix in="SourceAlpha" type="matrix" values="0 0 0 0 0 0 0 0 0 0 0 0 0 0 0 0 0 0 127 0" result="hardAlpha"/>
<feOffset dy="2"/>
<feGaussianBlur stdDeviation="0.5"/>
<feComposite in2="hardAlpha" operator="out"/>
<feColorMatrix type="matrix" values="0 0 0 0 0.211765 0 0 0 0 0 0 0 0 0 0.462745 0 0 0 1 0"/>
<feBlend mode="normal" in2="BackgroundImageFix" result="effect1_dropShadow_13_2"/>
<feBlend mode="normal" in="SourceGraphic" in2="effect1_dropShadow_13_2" result="shape"/>
</filter>
</defs>
</svg>
