<svg width="116" height="41" viewBox="0 0 116 41" fill="none" xmlns="http://www.w3.org/2000/svg">
<mask id="mask0_3634_35674" style="mask-type:alpha" maskUnits="userSpaceOnUse" x="0" y="0" width="117" height="35">
<path d="M1.93233 8.04857C2.25749 3.51328 6.03169 0 10.5786 0H107.59C112.657 0 116.644 4.32795 116.229 9.37835L114.827 26.444C114.459 30.9224 110.73 34.3772 106.237 34.4025L9.77193 34.945C4.50146 34.9747 0.321918 30.51 0.698832 25.2529L1.93233 8.04857Z" fill="#F3BC00"/>
</mask>
<g mask="url(#mask0_3634_35674)">
<rect width="3.1402" height="8.28991" transform="matrix(0.720019 -0.693955 0.679193 0.73396 110.091 0.0371094)" fill="#FEFB9F"/>
<g style="mix-blend-mode:overlay" opacity="0.7">
<rect x="3.59985" width="108.801" height="4" fill="white"/>
</g>
<g style="mix-blend-mode:overlay" opacity="0.7">
<rect x="-0.621704" y="30.5488" width="116.622" height="4.12596" fill="black"/>
</g>
<g filter="url(#filter0_dd_3634_35674)">
<path d="M2.68418 8.10248C2.98107 3.96156 6.42707 0.753781 10.5786 0.753781H107.59C112.217 0.753781 115.857 4.70539 115.478 9.31662L114.076 26.3823C113.74 30.4713 110.335 33.6256 106.232 33.6487L9.76769 34.1913C4.93642 34.2184 1.10518 30.1258 1.45068 25.3068L2.68418 8.10248Z" stroke="black" stroke-width="1.50756" shape-rendering="crispEdges"/>
</g>
</g>
<defs>
<filter id="filter0_dd_3634_35674" x="-0.832392" y="0" width="118.599" height="41.7293" filterUnits="userSpaceOnUse" color-interpolation-filters="sRGB">
<feFlood flood-opacity="0" result="BackgroundImageFix"/>
<feColorMatrix in="SourceAlpha" type="matrix" values="0 0 0 0 0 0 0 0 0 0 0 0 0 0 0 0 0 0 127 0" result="hardAlpha"/>
<feOffset dy="1.50756"/>
<feComposite in2="hardAlpha" operator="out"/>
<feColorMatrix type="matrix" values="0 0 0 0 0 0 0 0 0 0 0 0 0 0 0 0 0 0 1 0"/>
<feBlend mode="normal" in2="BackgroundImageFix" result="effect1_dropShadow_3634_35674"/>
<feColorMatrix in="SourceAlpha" type="matrix" values="0 0 0 0 0 0 0 0 0 0 0 0 0 0 0 0 0 0 127 0" result="hardAlpha"/>
<feOffset dy="5.27647"/>
<feGaussianBlur stdDeviation="0.753781"/>
<feComposite in2="hardAlpha" operator="out"/>
<feColorMatrix type="matrix" values="0 0 0 0 0 0 0 0 0 0 0 0 0 0 0 0 0 0 0.25 0"/>
<feBlend mode="normal" in2="effect1_dropShadow_3634_35674" result="effect2_dropShadow_3634_35674"/>
<feBlend mode="normal" in="SourceGraphic" in2="effect2_dropShadow_3634_35674" result="shape"/>
</filter>
</defs>
</svg>
