<svg width="336" height="72" viewBox="0 0 336 72" fill="none" xmlns="http://www.w3.org/2000/svg">
<path d="M132.83 27.8375C133.882 30.4744 131.889 33.7551 128.373 35.154C124.857 36.5654 121.155 35.575 120.091 32.938C119.039 30.3011 121.032 27.0204 124.548 25.6091C128.063 24.2101 131.765 25.2005 132.83 27.8375Z" fill="url(#paint0_linear_38_10)"/>
<path d="M132.013 29.93C131.74 29.8433 131.542 29.5834 131.555 29.2739L133.213 -14.6379C133.226 -14.9969 133.535 -15.2816 133.894 -15.2693C134.253 -15.2569 134.538 -14.9474 134.526 -14.5884L132.867 29.3234C132.854 29.6824 132.545 29.9671 132.186 29.9548C132.124 29.9548 132.062 29.9424 132.013 29.93Z" fill="url(#paint1_linear_38_10)"/>
<path d="M144.665 1.64126C144.665 1.64126 144.628 1.64127 144.615 1.61651C144.281 1.48033 144.12 1.09655 144.269 0.76229C146.014 -3.39738 141.545 -6.39333 138.871 -8.18842L138.19 -8.6465C134.526 -11.1968 133.647 -12.5957 133.226 -14.4279C133.152 -14.787 133.362 -15.1336 133.721 -15.2079C134.08 -15.2821 134.427 -15.0717 134.501 -14.7127C134.798 -13.4252 135.306 -12.2367 138.933 -9.71117L139.602 -9.26549C142.412 -7.38374 147.624 -3.86782 145.47 1.28225C145.334 1.59175 144.987 1.75269 144.665 1.65365V1.64126Z" fill="url(#paint2_linear_38_10)"/>
<path d="M144.244 16.4361C144.244 16.4361 144.207 16.4361 144.182 16.4114C143.848 16.2752 143.687 15.8914 143.836 15.5572C145.581 11.3975 141.1 8.38915 138.425 6.59405L137.757 6.14839C134.092 3.59812 133.213 2.19916 132.793 0.366929C132.718 0.00790952 132.929 -0.338717 133.288 -0.412997C133.634 -0.499656 133.993 -0.276825 134.068 0.0821946C134.365 1.36971 134.872 2.5582 138.5 5.08371L139.143 5.517C141.954 7.41114 147.19 10.9147 145.024 16.0771C144.888 16.3866 144.541 16.5476 144.219 16.4485L144.244 16.4361Z" fill="url(#paint3_linear_38_10)"/>
<path d="M144.492 8.80925C144.492 8.80925 144.455 8.80924 144.442 8.78448C144.108 8.6483 143.947 8.26452 144.096 7.93026C145.829 3.77059 141.372 0.774641 138.71 -1.02046L138.029 -1.4909C134.377 -4.01641 133.486 -5.41534 133.065 -7.25995C132.991 -7.60659 133.201 -7.96562 133.56 -8.0399C133.907 -8.11418 134.266 -7.90373 134.34 -7.54471C134.637 -6.24481 135.157 -5.05633 138.772 -2.55558L139.441 -2.09751C142.239 -0.215751 147.451 3.30015 145.309 8.45022C145.173 8.75972 144.826 8.92066 144.504 8.82162L144.492 8.80925Z" fill="url(#paint4_linear_38_10)"/>
<path d="M253.532 50.0105L251.747 50.2967L257.322 85.0612L259.106 84.775L253.532 50.0105Z" fill="url(#paint5_linear_38_10)"/>
<path d="M285.314 71.6876C286.837 74.0151 285.537 77.5557 282.429 79.5737C279.322 81.604 275.559 81.344 274.048 79.0042C272.538 76.6768 273.825 73.1361 276.945 71.1058C280.065 69.0878 283.816 69.3354 285.326 71.6752L285.314 71.6876Z" fill="url(#paint6_linear_38_10)"/>
<path d="M279.894 38.2332L278.109 38.5193L283.684 73.2839L285.468 72.9977L279.894 38.2332Z" fill="url(#paint7_linear_38_10)"/>
<path d="M252.074 54.9625L281.043 42.9416L279.842 35.4022L250.823 47.126L252.074 54.9625Z" fill="url(#paint8_linear_38_10)"/>
<path d="M280.828 49.4372L269.048 55.1346L270.229 57.5753L282.009 51.878L280.828 49.4372Z" fill="url(#paint9_linear_38_10)"/>
<path d="M271.956 -5.14346C274.122 -2.98935 273.528 1.09606 270.644 3.98059C267.759 6.85274 263.674 7.44697 261.52 5.28047C259.365 3.11398 259.947 -0.971408 262.832 -3.84356C265.716 -6.71571 269.814 -7.29757 271.956 -5.13107V-5.14346Z" fill="url(#paint10_linear_38_10)"/>
<path d="M42.7532 6.17199C42.8275 7.34808 41.6886 8.49942 40.1906 8.75939C38.6926 9.00699 37.4174 8.26421 37.3432 7.08811C37.2689 5.91201 38.4079 4.7483 39.8935 4.5007C41.3914 4.2531 42.6666 4.99589 42.7408 6.17199H42.7532Z" fill="url(#paint11_linear_38_10)"/>
<path d="M42.5305 6.766L41.8496 6.54315L46.6654 -8.01569L47.3463 -7.79286L42.5305 6.766Z" fill="url(#paint12_linear_38_10)"/>
<path d="M54.3286 6.08553C54.4029 7.26162 53.264 8.41296 51.766 8.67294C50.268 8.92054 48.9929 8.19011 48.9186 7.00163C48.8443 5.83792 49.9833 4.66182 51.4813 4.41422C52.9669 4.16662 54.242 4.92181 54.3286 6.08553Z" fill="url(#paint13_linear_38_10)"/>
<path d="M54.1428 6.71724L53.4619 6.48201L58.2777 -8.06445L58.9462 -7.8416L54.1428 6.71724Z" fill="url(#paint14_linear_38_10)"/>
<path d="M65.0373 5.4172C65.1116 6.5933 63.9727 7.75702 62.4747 8.017C60.9891 8.2646 59.7015 7.5218 59.6273 6.3457C59.5406 5.18198 60.692 4.00589 62.1899 3.75829C63.6879 3.49831 64.9631 4.2535 65.0373 5.42959V5.4172Z" fill="url(#paint15_linear_38_10)"/>
<path d="M64.8146 6.10992L64.1337 5.88709L68.9495 -8.67175L69.618 -8.44892L64.8146 6.10992Z" fill="url(#paint16_linear_38_10)"/>
<path d="M173.671 8.3263L173.758 -29.9278C170.539 -25.5329 167.097 -22.9827 163.507 -22.3389C159.645 -21.6332 156.438 -23.2922 154.42 -24.8149L155.312 -26.0034C157.082 -24.6663 159.905 -23.2055 163.235 -23.7997C166.924 -24.4682 170.502 -27.4642 173.869 -32.7381C174.043 -33.0104 174.389 -33.1466 174.699 -33.0476C174.699 -33.0476 174.699 -33.0476 174.711 -33.0476C175.021 -32.9485 175.231 -32.6638 175.231 -32.3419L175.132 8.31393H173.647L173.671 8.3263Z" fill="url(#paint17_linear_38_10)"/>
<path d="M225.022 -1.38538L224.622 -1.01562L244.522 20.5116L244.922 20.1419L225.022 -1.38538Z" fill="url(#paint18_linear_38_10)"/>
<path d="M225.022 -1.38538L224.622 -1.01562L244.522 20.5116L244.922 20.1419L225.022 -1.38538Z" fill="url(#paint19_linear_38_10)"/>
<path d="M227.948 -7.53584L227.548 -7.16602L247.451 14.3578L247.851 13.9879L227.948 -7.53584Z" fill="url(#paint20_linear_38_10)"/>
<path d="M241.958 -0.911796L226.63 6.6875L226.871 7.17554L242.2 -0.423756L241.958 -0.911796Z" fill="url(#paint21_linear_38_10)"/>
<path d="M245.877 5.31832L230.559 12.9121L230.801 13.4001L246.119 5.80636L245.877 5.31832Z" fill="url(#paint22_linear_38_10)"/>
<path d="M245.877 5.31832L230.559 12.9121L230.801 13.4001L246.119 5.80636L245.877 5.31832Z" fill="url(#paint23_linear_38_10)"/>
<path d="M222.7 69.4485L222.3 69.8184L242.207 91.3386L242.607 90.9687L222.7 69.4485Z" fill="url(#paint24_linear_38_10)"/>
<path d="M211.48 33.5329C210.935 35.2537 209.09 36.2193 207.37 35.6622C205.649 35.1175 204.683 33.2729 205.24 31.5521C205.785 29.8189 207.63 28.8656 209.35 29.4227C211.084 29.9674 212.037 31.812 211.48 33.5329Z" fill="url(#paint25_linear_38_10)"/>
<path d="M207.283 46.781C206.738 48.5142 204.893 49.4674 203.173 48.9227C201.452 48.378 200.486 46.5334 201.043 44.8002C201.588 43.0794 203.433 42.1261 205.153 42.6709C206.887 43.2156 207.84 45.0602 207.295 46.781H207.283Z" fill="url(#paint26_linear_38_10)"/>
<path d="M185.234 24.2359C184.219 27.4547 180.79 29.2251 177.571 28.2099C174.352 27.1948 172.569 23.7655 173.584 20.5467C174.6 17.3279 178.029 15.5452 181.248 16.5604C184.466 17.5755 186.249 21.0048 185.234 24.2236V24.2359Z" fill="url(#paint27_linear_38_10)"/>
<path d="M172.384 60.2744C178.834 58.5784 184.949 55.3719 189.889 50.9399C194.829 46.5203 198.493 40.6398 200.028 34.2889C200.684 31.132 200.585 27.8389 199.31 24.9791C198.085 22.1193 195.831 19.7672 193.108 18.3311C190.397 16.8826 187.19 16.3008 184.33 16.9198C181.458 17.5016 179.156 19.4205 178.153 22.0946C177.794 23.0602 176.717 23.5554 175.751 23.1964C174.785 22.8374 174.29 21.7603 174.649 20.7947C174.649 20.7823 174.662 20.7575 174.674 20.7452L174.711 20.6461C176.234 16.9817 179.911 14.2581 183.724 13.7381C187.524 13.1315 191.325 14.0724 194.47 15.9294C197.626 17.7864 200.177 20.708 201.452 24.1373C202.789 27.5665 202.69 31.3424 201.811 34.7345C199.904 41.4569 195.943 47.4364 190.681 51.8684C185.432 56.3004 179.156 59.3707 172.508 60.9058C172.334 60.9429 172.173 60.8439 172.136 60.6706C172.099 60.5096 172.198 60.3363 172.359 60.2992H172.384V60.2744Z" fill="url(#paint28_linear_38_10)"/>
<path d="M-368.881 -27.3396L-369.24 -27.8472C-367.383 -29.1224 -365.006 -30.9422 -362.27 -33.0592C-346.226 -45.4268 -316.365 -68.4412 -264.914 -80.6849C-201.652 -95.7266 -126.37 -89.1529 -41.2326 -61.236C-33.8542 -58.8095 -26.6119 -56.4821 -19.5801 -54.2537C178.004 8.26514 239.916 -6.7889 307.536 -65.3462L307.944 -64.8757C240.139 -6.16991 178.041 8.92128 -19.7781 -53.6595C-26.8347 -55.8879 -34.0275 -58.2153 -41.4307 -60.6418C-43.7458 -61.4093 -46.0856 -62.1521 -48.3759 -62.8826C-242.791 -124.399 -332.249 -55.4174 -361.886 -32.5764C-364.635 -30.4594 -366.999 -28.6272 -368.881 -27.352V-27.3396Z" fill="url(#paint29_linear_38_10)"/>
<path d="M-362.406 -8.88031L-362.765 -9.38788C-360.946 -10.6383 -358.47 -12.6438 -355.325 -15.1941C-340.036 -27.5988 -308.232 -53.4111 -256.508 -68.1556C-193.927 -85.9951 -121.839 -82.2688 -42.2232 -57.0755C-40.6014 -56.5556 -38.9796 -56.0356 -37.3455 -55.5033C-27.9367 -52.433 -18.8374 -49.5114 -10.06 -46.7382C86.4295 -16.2092 145.581 -2.93792 190.372 -1.4647C245.079 0.330395 278.889 -16.1845 312.822 -41.5387L313.193 -41.0435C279.161 -15.615 245.24 0.961774 190.347 -0.845702C141.421 -2.4551 75.3866 -18.1405 -37.5435 -54.9214C-39.1777 -55.4537 -40.8242 -55.9861 -42.446 -56.4937C-230.225 -115.918 -323.942 -39.855 -354.929 -14.7236C-358.073 -12.1734 -360.562 -10.1554 -362.406 -8.89268V-8.88031Z" fill="url(#paint30_linear_38_10)"/>
<path d="M-355.919 9.57711L-356.278 9.06952C-354.619 7.93057 -352.168 5.82598 -348.776 2.92906C-333.177 -10.4289 -300.704 -38.2343 -248.696 -55.6034C-185.1 -76.8351 -113.779 -75.2257 -36.652 -50.8248C-35.5749 -50.4905 -34.5102 -50.1439 -33.4332 -49.7972C174.006 17.2775 237.403 34.2875 318.133 -17.7455L318.467 -17.2255C277.23 9.35427 241.749 17.5003 191.919 11.8179C139.032 5.78883 68.2683 -16.2599 -33.6313 -49.203C-34.7083 -49.5496 -35.7854 -49.8963 -36.8624 -50.2429C-157.468 -88.398 -262.252 -70.3604 -348.392 3.38712C-351.797 6.30879 -354.26 8.4134 -355.944 9.56473L-355.919 9.57711Z" fill="url(#paint31_linear_38_10)"/>
<path d="M-349.444 28.0363L-349.803 27.5287C-348.38 26.563 -345.966 24.3718 -342.611 21.3387C-328.015 8.12926 -293.821 -22.8083 -241.479 -42.9257C-176.88 -67.76 -106.215 -68.3418 -31.4154 -44.6837C-30.7716 -44.4856 -30.1402 -44.2752 -29.4965 -44.0771C-2.83002 -35.5225 21.7938 -27.4384 43.5206 -20.2951C193.195 28.8781 249.214 47.2624 323.469 6.04944L323.766 6.59414C286.824 27.0954 254.587 33.1863 212.47 27.6401C170.651 22.131 119.992 5.49234 43.3101 -19.7009C21.5833 -26.8318 -3.04046 -34.9283 -29.7069 -43.4828C-30.3507 -43.6933 -31.0068 -43.9038 -31.6506 -44.1018C-148.53 -81.0808 -253.004 -58.9207 -342.202 21.7968C-345.57 24.8422 -348.008 27.0459 -349.457 28.0363H-349.444Z" fill="url(#paint32_linear_38_10)"/>
<path d="M-342.957 46.5074L-343.316 45.9998C-342.202 45.2323 -339.936 43.0658 -336.804 40.0698C-322.085 25.9814 -287.606 -6.99883 -234.88 -30.0256C-169.192 -58.71 -99.0593 -61.5945 -26.426 -38.6173C-26.1413 -38.5306 -25.8689 -38.444 -25.5842 -38.3449C25.8422 -21.9786 67.2408 -7.1474 103.762 5.92585C211.604 44.5637 260.826 62.2052 328.78 29.8563L329.053 30.4134C260.864 62.8737 211.567 45.2075 103.551 6.50771C67.0304 -6.57792 25.6441 -21.3967 -25.7699 -37.7631C-26.0299 -37.8497 -26.3022 -37.9364 -26.5622 -38.0231C-104.828 -62.783 -221.831 -69.0596 -336.359 40.5031C-339.627 43.6353 -341.793 45.7027 -342.957 46.495V46.5074Z" fill="url(#paint33_linear_38_10)"/>
<path d="M-336.482 64.9652L-336.841 64.4576C-336.049 63.9129 -334.18 62.0188 -331.332 59.1466C-317.875 45.5286 -282.134 9.35435 -228.962 -16.7674C-162.061 -49.6362 -92.3122 -54.972 -21.672 -32.6138C-21.214 -32.4652 -20.7559 -32.329 -20.3103 -32.1804C46.0216 -11.1964 97.0147 9.55244 138.054 26.2406C222.944 60.7684 269.715 79.784 334.079 53.6623L334.314 54.2441C269.715 80.4649 222.857 61.3998 137.819 26.8225C96.7919 10.1343 45.7988 -10.6022 -20.5083 -31.5862C-20.9664 -31.7348 -21.4121 -31.8709 -21.8701 -32.0195C-97.8213 -56.049 -213.079 -59.664 -330.899 59.5923C-333.87 62.5882 -335.653 64.4081 -336.495 64.9776L-336.482 64.9652Z" fill="url(#paint34_linear_38_10)"/>
<path d="M-330.008 83.4247L-330.367 82.9171C-329.909 82.6076 -328.448 81.0354 -326.244 78.6708C-314.248 65.7832 -277.74 26.5883 -223.973 -2.95036C-193.531 -19.6757 -162.321 -30.6444 -131.21 -35.5716C-93.3648 -41.5635 -55.1973 -38.6542 -17.7727 -26.918C-16.5223 -26.5218 -15.2595 -26.1257 -14.0091 -25.7295C60.8526 -2.04661 115.374 23.4561 159.323 44.0069C232.575 78.2623 276.796 98.9368 339.402 77.4576L339.6 78.0394C276.747 99.6053 232.451 78.8813 159.051 44.564C115.114 24.0132 60.6173 -1.46476 -14.2072 -25.1353C-15.4576 -25.5314 -16.708 -25.9276 -17.9707 -26.3114C-122.619 -59.1183 -231.946 -21.6813 -325.811 79.1041C-328.2 81.6668 -329.513 83.0781 -330.033 83.4371L-330.008 83.4247Z" fill="url(#paint35_linear_38_10)"/>
<path d="M-323.533 101.882L-323.892 101.374C-323.719 101.25 -322.791 100.173 -321.602 98.8114C-283.224 54.7882 -245.502 27.3418 -220.606 12.0649C-189.52 -7.01261 -157.939 -19.9621 -126.754 -26.4368C-88.5615 -34.36 -50.5797 -32.602 -13.8607 -21.2001C-12.1647 -20.6801 -10.481 -20.1478 -8.80969 -19.6154C71.4373 5.77589 127.865 36.0449 173.399 60.483C239.161 95.7659 282.59 119.065 344.7 101.263L344.874 101.857C282.528 119.734 239 96.3849 173.114 61.0277C127.605 36.6144 71.2021 6.34538 -8.98301 -19.0212C-10.6543 -19.5535 -12.338 -20.0735 -14.034 -20.6058C-157.976 -65.2851 -276.737 48.3135 -321.119 99.2199C-322.741 101.089 -323.31 101.733 -323.533 101.882Z" fill="url(#paint36_linear_38_10)"/>
<path d="M-316.972 120.278L-317.467 119.894C-317.108 119.424 -281.157 72.9496 -225.533 33.247C-192.863 9.92317 -159.895 -6.52983 -127.558 -15.6662C-87.1129 -27.093 -47.5465 -27.0187 -9.93613 -15.4805C-7.98009 -14.8739 -6.01168 -14.2673 -4.08041 -13.6607C79.4101 12.7582 136.866 47.8182 183.229 76.1189C243.791 113.085 287.542 139.777 350.012 125.057L350.16 125.663C287.431 140.445 243.593 113.692 182.907 76.6512C136.568 48.3754 79.1502 13.3277 -4.2661 -13.0664C-6.19737 -13.6854 -8.15341 -14.2797 -10.1218 -14.8863C-95.0361 -40.9585 -173.946 -2.82822 -225.174 33.7546C-280.711 73.3953 -316.613 119.808 -316.972 120.278Z" fill="url(#paint37_linear_38_10)"/>
<g style="mix-blend-mode:multiply">
<path d="M132.83 27.8375C133.882 30.4744 131.889 33.7551 128.373 35.154C124.857 36.5654 121.155 35.575 120.091 32.938C119.039 30.3011 121.032 27.0204 124.548 25.6091C128.063 24.2101 131.765 25.2005 132.83 27.8375Z" fill="url(#paint38_linear_38_10)"/>
<path d="M132.013 29.93C131.74 29.8433 131.542 29.5834 131.555 29.2739L133.213 -14.6379C133.226 -14.9969 133.535 -15.2816 133.894 -15.2693C134.253 -15.2569 134.538 -14.9474 134.526 -14.5884L132.867 29.3234C132.854 29.6824 132.545 29.9671 132.186 29.9548C132.124 29.9548 132.062 29.9424 132.013 29.93Z" fill="url(#paint39_linear_38_10)"/>
<path d="M144.665 1.64126C144.665 1.64126 144.628 1.64127 144.615 1.61651C144.281 1.48033 144.12 1.09655 144.269 0.76229C146.014 -3.39738 141.545 -6.39333 138.871 -8.18842L138.19 -8.6465C134.526 -11.1968 133.647 -12.5957 133.226 -14.4279C133.152 -14.787 133.362 -15.1336 133.721 -15.2079C134.08 -15.2821 134.427 -15.0717 134.501 -14.7127C134.798 -13.4252 135.306 -12.2367 138.933 -9.71117L139.602 -9.26549C142.412 -7.38374 147.624 -3.86782 145.47 1.28225C145.334 1.59175 144.987 1.75269 144.665 1.65365V1.64126Z" fill="url(#paint40_linear_38_10)"/>
<path d="M144.244 16.4361C144.244 16.4361 144.207 16.4361 144.182 16.4114C143.848 16.2752 143.687 15.8914 143.836 15.5572C145.581 11.3975 141.1 8.38915 138.425 6.59405L137.757 6.14839C134.092 3.59812 133.213 2.19916 132.793 0.366929C132.718 0.00790952 132.929 -0.338717 133.288 -0.412997C133.634 -0.499656 133.993 -0.276825 134.068 0.0821946C134.365 1.36971 134.872 2.5582 138.5 5.08371L139.143 5.517C141.954 7.41114 147.19 10.9147 145.024 16.0771C144.888 16.3866 144.541 16.5476 144.219 16.4485L144.244 16.4361Z" fill="url(#paint41_linear_38_10)"/>
<path d="M144.492 8.80925C144.492 8.80925 144.455 8.80924 144.442 8.78448C144.108 8.6483 143.947 8.26452 144.096 7.93026C145.829 3.77059 141.372 0.774641 138.71 -1.02046L138.029 -1.4909C134.377 -4.01641 133.486 -5.41534 133.065 -7.25995C132.991 -7.60659 133.201 -7.96562 133.56 -8.0399C133.907 -8.11418 134.266 -7.90373 134.34 -7.54471C134.637 -6.24481 135.157 -5.05633 138.772 -2.55558L139.441 -2.09751C142.239 -0.215751 147.451 3.30015 145.309 8.45022C145.173 8.75972 144.826 8.92066 144.504 8.82162L144.492 8.80925Z" fill="url(#paint42_linear_38_10)"/>
<path d="M253.532 50.0105L251.747 50.2967L257.322 85.0612L259.106 84.775L253.532 50.0105Z" fill="url(#paint43_linear_38_10)"/>
<path d="M285.314 71.6876C286.837 74.0151 285.537 77.5557 282.429 79.5737C279.322 81.604 275.559 81.344 274.048 79.0042C272.538 76.6768 273.825 73.1361 276.945 71.1058C280.065 69.0878 283.816 69.3354 285.326 71.6752L285.314 71.6876Z" fill="url(#paint44_linear_38_10)"/>
<path d="M279.894 38.2332L278.109 38.5193L283.684 73.2839L285.468 72.9977L279.894 38.2332Z" fill="url(#paint45_linear_38_10)"/>
<path d="M252.074 54.9625L281.043 42.9416L279.842 35.4022L250.823 47.126L252.074 54.9625Z" fill="url(#paint46_linear_38_10)"/>
<path d="M280.828 49.4372L269.048 55.1346L270.229 57.5753L282.009 51.878L280.828 49.4372Z" fill="url(#paint47_linear_38_10)"/>
<path d="M271.956 -5.14346C274.122 -2.98935 273.528 1.09606 270.644 3.98059C267.759 6.85274 263.674 7.44697 261.52 5.28047C259.365 3.11398 259.947 -0.971408 262.832 -3.84356C265.716 -6.71571 269.814 -7.29757 271.956 -5.13107V-5.14346Z" fill="url(#paint48_linear_38_10)"/>
<path d="M42.7532 6.17199C42.8275 7.34808 41.6886 8.49942 40.1906 8.75939C38.6926 9.00699 37.4174 8.26421 37.3432 7.08811C37.2689 5.91201 38.4079 4.7483 39.8935 4.5007C41.3914 4.2531 42.6666 4.99589 42.7408 6.17199H42.7532Z" fill="url(#paint49_linear_38_10)"/>
<path d="M42.5305 6.766L41.8496 6.54315L46.6654 -8.01569L47.3463 -7.79286L42.5305 6.766Z" fill="url(#paint50_linear_38_10)"/>
<path d="M54.3286 6.08553C54.4029 7.26162 53.264 8.41296 51.766 8.67294C50.268 8.92054 48.9929 8.19011 48.9186 7.00163C48.8443 5.83792 49.9833 4.66182 51.4813 4.41422C52.9669 4.16662 54.242 4.92181 54.3286 6.08553Z" fill="url(#paint51_linear_38_10)"/>
<path d="M54.1428 6.71724L53.4619 6.48201L58.2777 -8.06445L58.9462 -7.8416L54.1428 6.71724Z" fill="url(#paint52_linear_38_10)"/>
<path d="M65.0373 5.4172C65.1116 6.5933 63.9727 7.75702 62.4747 8.017C60.9891 8.2646 59.7015 7.5218 59.6273 6.3457C59.5406 5.18198 60.692 4.00589 62.1899 3.75829C63.6879 3.49831 64.9631 4.2535 65.0373 5.42959V5.4172Z" fill="url(#paint53_linear_38_10)"/>
<path d="M64.8146 6.10992L64.1337 5.88709L68.9495 -8.67175L69.618 -8.44892L64.8146 6.10992Z" fill="url(#paint54_linear_38_10)"/>
<path d="M173.671 8.3263L173.758 -29.9278C170.539 -25.5329 167.097 -22.9827 163.507 -22.3389C159.645 -21.6332 156.438 -23.2922 154.42 -24.8149L155.312 -26.0034C157.082 -24.6663 159.905 -23.2055 163.235 -23.7997C166.924 -24.4682 170.502 -27.4642 173.869 -32.7381C174.043 -33.0104 174.389 -33.1466 174.699 -33.0476C174.699 -33.0476 174.699 -33.0476 174.711 -33.0476C175.021 -32.9485 175.231 -32.6638 175.231 -32.3419L175.132 8.31393H173.647L173.671 8.3263Z" fill="url(#paint55_linear_38_10)"/>
<path d="M225.022 -1.38538L224.622 -1.01562L244.522 20.5116L244.922 20.1419L225.022 -1.38538Z" fill="url(#paint56_linear_38_10)"/>
<path d="M225.022 -1.38538L224.622 -1.01562L244.522 20.5116L244.922 20.1419L225.022 -1.38538Z" fill="url(#paint57_linear_38_10)"/>
<path d="M227.948 -7.53584L227.548 -7.16602L247.451 14.3578L247.851 13.9879L227.948 -7.53584Z" fill="url(#paint58_linear_38_10)"/>
<path d="M241.958 -0.911796L226.63 6.6875L226.871 7.17554L242.2 -0.423756L241.958 -0.911796Z" fill="url(#paint59_linear_38_10)"/>
<path d="M245.877 5.31832L230.559 12.9121L230.801 13.4001L246.119 5.80636L245.877 5.31832Z" fill="url(#paint60_linear_38_10)"/>
<path d="M245.877 5.31832L230.559 12.9121L230.801 13.4001L246.119 5.80636L245.877 5.31832Z" fill="url(#paint61_linear_38_10)"/>
<path d="M222.7 69.4485L222.3 69.8184L242.207 91.3386L242.607 90.9687L222.7 69.4485Z" fill="url(#paint62_linear_38_10)"/>
<path d="M211.48 33.5329C210.935 35.2537 209.09 36.2193 207.37 35.6622C205.649 35.1175 204.683 33.2729 205.24 31.5521C205.785 29.8189 207.63 28.8656 209.35 29.4227C211.084 29.9674 212.037 31.812 211.48 33.5329Z" fill="url(#paint63_linear_38_10)"/>
<path d="M207.283 46.781C206.738 48.5142 204.893 49.4674 203.173 48.9227C201.452 48.378 200.486 46.5334 201.043 44.8002C201.588 43.0794 203.433 42.1261 205.153 42.6709C206.887 43.2156 207.84 45.0602 207.295 46.781H207.283Z" fill="url(#paint64_linear_38_10)"/>
<path d="M185.234 24.2359C184.219 27.4547 180.79 29.2251 177.571 28.2099C174.352 27.1948 172.569 23.7655 173.584 20.5467C174.6 17.3279 178.029 15.5452 181.248 16.5604C184.466 17.5755 186.249 21.0048 185.234 24.2236V24.2359Z" fill="url(#paint65_linear_38_10)"/>
<path d="M172.384 60.2744C178.834 58.5784 184.949 55.3719 189.889 50.9399C194.829 46.5203 198.493 40.6398 200.028 34.2889C200.684 31.132 200.585 27.8389 199.31 24.9791C198.085 22.1193 195.831 19.7672 193.108 18.3311C190.397 16.8826 187.19 16.3008 184.33 16.9198C181.458 17.5016 179.156 19.4205 178.153 22.0946C177.794 23.0602 176.717 23.5554 175.751 23.1964C174.785 22.8374 174.29 21.7603 174.649 20.7947C174.649 20.7823 174.662 20.7575 174.674 20.7452L174.711 20.6461C176.234 16.9817 179.911 14.2581 183.724 13.7381C187.524 13.1315 191.325 14.0724 194.47 15.9294C197.626 17.7864 200.177 20.708 201.452 24.1373C202.789 27.5665 202.69 31.3424 201.811 34.7345C199.904 41.4569 195.943 47.4364 190.681 51.8684C185.432 56.3004 179.156 59.3707 172.508 60.9058C172.334 60.9429 172.173 60.8439 172.136 60.6706C172.099 60.5096 172.198 60.3363 172.359 60.2992H172.384V60.2744Z" fill="url(#paint66_linear_38_10)"/>
<path d="M-368.881 -27.3396L-369.24 -27.8472C-367.383 -29.1224 -365.006 -30.9422 -362.27 -33.0592C-346.226 -45.4268 -316.365 -68.4412 -264.914 -80.6849C-201.652 -95.7266 -126.37 -89.1529 -41.2326 -61.236C-33.8542 -58.8095 -26.6119 -56.4821 -19.5801 -54.2537C178.004 8.26514 239.916 -6.7889 307.536 -65.3462L307.944 -64.8757C240.139 -6.16991 178.041 8.92128 -19.7781 -53.6595C-26.8347 -55.8879 -34.0275 -58.2153 -41.4307 -60.6418C-43.7458 -61.4093 -46.0856 -62.1521 -48.3759 -62.8826C-242.791 -124.399 -332.249 -55.4174 -361.886 -32.5764C-364.635 -30.4594 -366.999 -28.6272 -368.881 -27.352V-27.3396Z" fill="url(#paint67_linear_38_10)"/>
<path d="M-362.406 -8.88031L-362.765 -9.38788C-360.946 -10.6383 -358.47 -12.6438 -355.325 -15.1941C-340.036 -27.5988 -308.232 -53.4111 -256.508 -68.1556C-193.927 -85.9951 -121.839 -82.2688 -42.2232 -57.0755C-40.6014 -56.5556 -38.9796 -56.0356 -37.3455 -55.5033C-27.9367 -52.433 -18.8374 -49.5114 -10.06 -46.7382C86.4295 -16.2092 145.581 -2.93792 190.372 -1.4647C245.079 0.330395 278.889 -16.1845 312.822 -41.5387L313.193 -41.0435C279.161 -15.615 245.24 0.961774 190.347 -0.845702C141.421 -2.4551 75.3866 -18.1405 -37.5435 -54.9214C-39.1777 -55.4537 -40.8242 -55.9861 -42.446 -56.4937C-230.225 -115.918 -323.942 -39.855 -354.929 -14.7236C-358.073 -12.1734 -360.562 -10.1554 -362.406 -8.89268V-8.88031Z" fill="url(#paint68_linear_38_10)"/>
<path d="M-355.919 9.57711L-356.278 9.06952C-354.619 7.93057 -352.168 5.82598 -348.776 2.92906C-333.177 -10.4289 -300.704 -38.2343 -248.696 -55.6034C-185.1 -76.8351 -113.779 -75.2257 -36.652 -50.8248C-35.5749 -50.4905 -34.5102 -50.1439 -33.4332 -49.7972C174.006 17.2775 237.403 34.2875 318.133 -17.7455L318.467 -17.2255C277.23 9.35427 241.749 17.5003 191.919 11.8179C139.032 5.78883 68.2683 -16.2599 -33.6313 -49.203C-34.7083 -49.5496 -35.7854 -49.8963 -36.8624 -50.2429C-157.468 -88.398 -262.252 -70.3604 -348.392 3.38712C-351.797 6.30879 -354.26 8.4134 -355.944 9.56473L-355.919 9.57711Z" fill="url(#paint69_linear_38_10)"/>
<path d="M-349.444 28.0363L-349.803 27.5287C-348.38 26.563 -345.966 24.3718 -342.611 21.3387C-328.015 8.12926 -293.821 -22.8083 -241.479 -42.9257C-176.88 -67.76 -106.215 -68.3418 -31.4154 -44.6837C-30.7716 -44.4856 -30.1402 -44.2752 -29.4965 -44.0771C-2.83002 -35.5225 21.7938 -27.4384 43.5206 -20.2951C193.195 28.8781 249.214 47.2624 323.469 6.04944L323.766 6.59414C286.824 27.0954 254.587 33.1863 212.47 27.6401C170.651 22.131 119.992 5.49234 43.3101 -19.7009C21.5833 -26.8318 -3.04046 -34.9283 -29.7069 -43.4828C-30.3507 -43.6933 -31.0068 -43.9038 -31.6506 -44.1018C-148.53 -81.0808 -253.004 -58.9207 -342.202 21.7968C-345.57 24.8422 -348.008 27.0459 -349.457 28.0363H-349.444Z" fill="url(#paint70_linear_38_10)"/>
<path d="M-342.957 46.5074L-343.316 45.9998C-342.202 45.2323 -339.936 43.0658 -336.804 40.0698C-322.085 25.9814 -287.606 -6.99883 -234.88 -30.0256C-169.192 -58.71 -99.0593 -61.5945 -26.426 -38.6173C-26.1413 -38.5306 -25.8689 -38.444 -25.5842 -38.3449C25.8422 -21.9786 67.2408 -7.1474 103.762 5.92585C211.604 44.5637 260.826 62.2052 328.78 29.8563L329.053 30.4134C260.864 62.8737 211.567 45.2075 103.551 6.50771C67.0304 -6.57792 25.6441 -21.3967 -25.7699 -37.7631C-26.0299 -37.8497 -26.3022 -37.9364 -26.5622 -38.0231C-104.828 -62.783 -221.831 -69.0596 -336.359 40.5031C-339.627 43.6353 -341.793 45.7027 -342.957 46.495V46.5074Z" fill="url(#paint71_linear_38_10)"/>
<path d="M-336.482 64.9652L-336.841 64.4576C-336.049 63.9129 -334.18 62.0188 -331.332 59.1466C-317.875 45.5286 -282.134 9.35435 -228.962 -16.7674C-162.061 -49.6362 -92.3122 -54.972 -21.672 -32.6138C-21.214 -32.4652 -20.7559 -32.329 -20.3103 -32.1804C46.0216 -11.1964 97.0147 9.55244 138.054 26.2406C222.944 60.7684 269.715 79.784 334.079 53.6623L334.314 54.2441C269.715 80.4649 222.857 61.3998 137.819 26.8225C96.7919 10.1343 45.7988 -10.6022 -20.5083 -31.5862C-20.9664 -31.7348 -21.4121 -31.8709 -21.8701 -32.0195C-97.8213 -56.049 -213.079 -59.664 -330.899 59.5923C-333.87 62.5882 -335.653 64.4081 -336.495 64.9776L-336.482 64.9652Z" fill="url(#paint72_linear_38_10)"/>
<path d="M-330.008 83.4247L-330.367 82.9171C-329.909 82.6076 -328.448 81.0354 -326.244 78.6708C-314.248 65.7832 -277.74 26.5883 -223.973 -2.95036C-193.531 -19.6757 -162.321 -30.6444 -131.21 -35.5716C-93.3648 -41.5635 -55.1973 -38.6542 -17.7727 -26.918C-16.5223 -26.5218 -15.2595 -26.1257 -14.0091 -25.7295C60.8526 -2.04661 115.374 23.4561 159.323 44.0069C232.575 78.2623 276.796 98.9368 339.402 77.4576L339.6 78.0394C276.747 99.6053 232.451 78.8813 159.051 44.564C115.114 24.0132 60.6173 -1.46476 -14.2072 -25.1353C-15.4576 -25.5314 -16.708 -25.9276 -17.9707 -26.3114C-122.619 -59.1183 -231.946 -21.6813 -325.811 79.1041C-328.2 81.6668 -329.513 83.0781 -330.033 83.4371L-330.008 83.4247Z" fill="url(#paint73_linear_38_10)"/>
<path d="M-323.533 101.882L-323.892 101.374C-323.719 101.25 -322.791 100.173 -321.602 98.8114C-283.224 54.7882 -245.502 27.3418 -220.606 12.0649C-189.52 -7.01261 -157.939 -19.9621 -126.754 -26.4368C-88.5615 -34.36 -50.5797 -32.602 -13.8607 -21.2001C-12.1647 -20.6801 -10.481 -20.1478 -8.80969 -19.6154C71.4373 5.77589 127.865 36.0449 173.399 60.483C239.161 95.7659 282.59 119.065 344.7 101.263L344.874 101.857C282.528 119.734 239 96.3849 173.114 61.0277C127.605 36.6144 71.2021 6.34538 -8.98301 -19.0212C-10.6543 -19.5535 -12.338 -20.0735 -14.034 -20.6058C-157.976 -65.2851 -276.737 48.3135 -321.119 99.2199C-322.741 101.089 -323.31 101.733 -323.533 101.882Z" fill="url(#paint74_linear_38_10)"/>
<path d="M-316.972 120.278L-317.467 119.894C-317.108 119.424 -281.157 72.9496 -225.533 33.247C-192.863 9.92317 -159.895 -6.52983 -127.558 -15.6662C-87.1129 -27.093 -47.5465 -27.0187 -9.93613 -15.4805C-7.98009 -14.8739 -6.01168 -14.2673 -4.08041 -13.6607C79.4101 12.7582 136.866 47.8182 183.229 76.1189C243.791 113.085 287.542 139.777 350.012 125.057L350.16 125.663C287.431 140.445 243.593 113.692 182.907 76.6512C136.568 48.3754 79.1502 13.3277 -4.2661 -13.0664C-6.19737 -13.6854 -8.15341 -14.2797 -10.1218 -14.8863C-95.0361 -40.9585 -173.946 -2.82822 -225.174 33.7546C-280.711 73.3953 -316.613 119.808 -316.972 120.278Z" fill="url(#paint75_linear_38_10)"/>
</g>
<defs>
<linearGradient id="paint0_linear_38_10" x1="113.294" y1="128.412" x2="143.823" y2="-98.9954" gradientUnits="userSpaceOnUse">
<stop stop-color="#33D0E0"/>
<stop offset="0.24" stop-color="#987CDB"/>
<stop offset="0.48" stop-color="#FA2CD7"/>
<stop offset="0.73" stop-color="#FC8682"/>
<stop offset="0.91" stop-color="#FDC347"/>
<stop offset="1" stop-color="#FEDC31"/>
</linearGradient>
<linearGradient id="paint1_linear_38_10" x1="116.736" y1="128.871" x2="147.265" y2="-98.5369" gradientUnits="userSpaceOnUse">
<stop stop-color="#33D0E0"/>
<stop offset="0.24" stop-color="#987CDB"/>
<stop offset="0.48" stop-color="#FA2CD7"/>
<stop offset="0.73" stop-color="#FC8682"/>
<stop offset="0.91" stop-color="#FDC347"/>
<stop offset="1" stop-color="#FEDC31"/>
</linearGradient>
<linearGradient id="paint2_linear_38_10" x1="121.18" y1="129.464" x2="151.709" y2="-97.9308" gradientUnits="userSpaceOnUse">
<stop stop-color="#33D0E0"/>
<stop offset="0.24" stop-color="#987CDB"/>
<stop offset="0.48" stop-color="#FA2CD7"/>
<stop offset="0.73" stop-color="#FC8682"/>
<stop offset="0.91" stop-color="#FDC347"/>
<stop offset="1" stop-color="#FEDC31"/>
</linearGradient>
<linearGradient id="paint3_linear_38_10" x1="122.715" y1="129.676" x2="153.244" y2="-97.7319" gradientUnits="userSpaceOnUse">
<stop stop-color="#33D0E0"/>
<stop offset="0.24" stop-color="#987CDB"/>
<stop offset="0.48" stop-color="#FA2CD7"/>
<stop offset="0.73" stop-color="#FC8682"/>
<stop offset="0.91" stop-color="#FDC347"/>
<stop offset="1" stop-color="#FEDC31"/>
</linearGradient>
<linearGradient id="paint4_linear_38_10" x1="121.948" y1="129.563" x2="152.477" y2="-97.8318" gradientUnits="userSpaceOnUse">
<stop stop-color="#33D0E0"/>
<stop offset="0.24" stop-color="#987CDB"/>
<stop offset="0.48" stop-color="#FA2CD7"/>
<stop offset="0.73" stop-color="#FC8682"/>
<stop offset="0.91" stop-color="#FDC347"/>
<stop offset="1" stop-color="#FEDC31"/>
</linearGradient>
<linearGradient id="paint5_linear_38_10" x1="244.868" y1="146.074" x2="275.397" y2="-81.334" gradientUnits="userSpaceOnUse">
<stop stop-color="#33D0E0"/>
<stop offset="0.24" stop-color="#987CDB"/>
<stop offset="0.48" stop-color="#FA2CD7"/>
<stop offset="0.73" stop-color="#FC8682"/>
<stop offset="0.91" stop-color="#FDC347"/>
<stop offset="1" stop-color="#FEDC31"/>
</linearGradient>
<linearGradient id="paint6_linear_38_10" x1="269.74" y1="149.409" x2="300.269" y2="-77.9863" gradientUnits="userSpaceOnUse">
<stop stop-color="#33D0E0"/>
<stop offset="0.24" stop-color="#987CDB"/>
<stop offset="0.48" stop-color="#FA2CD7"/>
<stop offset="0.73" stop-color="#FC8682"/>
<stop offset="0.91" stop-color="#FDC347"/>
<stop offset="1" stop-color="#FEDC31"/>
</linearGradient>
<linearGradient id="paint7_linear_38_10" x1="269.233" y1="149.34" x2="299.761" y2="-78.0686" gradientUnits="userSpaceOnUse">
<stop stop-color="#33D0E0"/>
<stop offset="0.24" stop-color="#987CDB"/>
<stop offset="0.48" stop-color="#FA2CD7"/>
<stop offset="0.73" stop-color="#FC8682"/>
<stop offset="0.91" stop-color="#FDC347"/>
<stop offset="1" stop-color="#FEDC31"/>
</linearGradient>
<linearGradient id="paint8_linear_38_10" x1="252.235" y1="147.057" x2="282.764" y2="-80.3382" gradientUnits="userSpaceOnUse">
<stop stop-color="#33D0E0"/>
<stop offset="0.24" stop-color="#987CDB"/>
<stop offset="0.48" stop-color="#FA2CD7"/>
<stop offset="0.73" stop-color="#FC8682"/>
<stop offset="0.91" stop-color="#FDC347"/>
<stop offset="1" stop-color="#FEDC31"/>
</linearGradient>
<linearGradient id="paint9_linear_38_10" x1="262.796" y1="148.477" x2="293.337" y2="-78.931" gradientUnits="userSpaceOnUse">
<stop stop-color="#33D0E0"/>
<stop offset="0.24" stop-color="#987CDB"/>
<stop offset="0.48" stop-color="#FA2CD7"/>
<stop offset="0.73" stop-color="#FC8682"/>
<stop offset="0.91" stop-color="#FDC347"/>
<stop offset="1" stop-color="#FEDC31"/>
</linearGradient>
<linearGradient id="paint10_linear_38_10" x1="247.085" y1="146.375" x2="277.614" y2="-81.0326" gradientUnits="userSpaceOnUse">
<stop stop-color="#33D0E0"/>
<stop offset="0.24" stop-color="#987CDB"/>
<stop offset="0.48" stop-color="#FA2CD7"/>
<stop offset="0.73" stop-color="#FC8682"/>
<stop offset="0.91" stop-color="#FDC347"/>
<stop offset="1" stop-color="#FEDC31"/>
</linearGradient>
<linearGradient id="paint11_linear_38_10" x1="25.285" y1="116.589" x2="55.8136" y2="-110.806" gradientUnits="userSpaceOnUse">
<stop stop-color="#33D0E0"/>
<stop offset="0.24" stop-color="#987CDB"/>
<stop offset="0.48" stop-color="#FA2CD7"/>
<stop offset="0.73" stop-color="#FC8682"/>
<stop offset="0.91" stop-color="#FDC347"/>
<stop offset="1" stop-color="#FEDC31"/>
</linearGradient>
<linearGradient id="paint12_linear_38_10" x1="28.8011" y1="117.059" x2="59.3301" y2="-110.336" gradientUnits="userSpaceOnUse">
<stop stop-color="#33D0E0"/>
<stop offset="0.24" stop-color="#987CDB"/>
<stop offset="0.48" stop-color="#FA2CD7"/>
<stop offset="0.73" stop-color="#FC8682"/>
<stop offset="0.91" stop-color="#FDC347"/>
<stop offset="1" stop-color="#FEDC31"/>
</linearGradient>
<linearGradient id="paint13_linear_38_10" x1="36.6501" y1="118.112" x2="67.1791" y2="-109.283" gradientUnits="userSpaceOnUse">
<stop stop-color="#33D0E0"/>
<stop offset="0.24" stop-color="#987CDB"/>
<stop offset="0.48" stop-color="#FA2CD7"/>
<stop offset="0.73" stop-color="#FC8682"/>
<stop offset="0.91" stop-color="#FDC347"/>
<stop offset="1" stop-color="#FEDC31"/>
</linearGradient>
<linearGradient id="paint14_linear_38_10" x1="40.1906" y1="118.595" x2="70.7197" y2="-108.813" gradientUnits="userSpaceOnUse">
<stop stop-color="#33D0E0"/>
<stop offset="0.24" stop-color="#987CDB"/>
<stop offset="0.48" stop-color="#FA2CD7"/>
<stop offset="0.73" stop-color="#FC8682"/>
<stop offset="0.91" stop-color="#FDC347"/>
<stop offset="1" stop-color="#FEDC31"/>
</linearGradient>
<linearGradient id="paint15_linear_38_10" x1="47.0863" y1="119.523" x2="77.6152" y2="-107.884" gradientUnits="userSpaceOnUse">
<stop stop-color="#33D0E0"/>
<stop offset="0.24" stop-color="#987CDB"/>
<stop offset="0.48" stop-color="#FA2CD7"/>
<stop offset="0.73" stop-color="#FC8682"/>
<stop offset="0.91" stop-color="#FDC347"/>
<stop offset="1" stop-color="#FEDC31"/>
</linearGradient>
<linearGradient id="paint16_linear_38_10" x1="50.6024" y1="119.993" x2="81.1314" y2="-107.414" gradientUnits="userSpaceOnUse">
<stop stop-color="#33D0E0"/>
<stop offset="0.24" stop-color="#987CDB"/>
<stop offset="0.48" stop-color="#FA2CD7"/>
<stop offset="0.73" stop-color="#FC8682"/>
<stop offset="0.91" stop-color="#FDC347"/>
<stop offset="1" stop-color="#FEDC31"/>
</linearGradient>
<linearGradient id="paint17_linear_38_10" x1="145.853" y1="132.782" x2="176.395" y2="-94.6256" gradientUnits="userSpaceOnUse">
<stop stop-color="#33D0E0"/>
<stop offset="0.24" stop-color="#987CDB"/>
<stop offset="0.48" stop-color="#FA2CD7"/>
<stop offset="0.73" stop-color="#FC8682"/>
<stop offset="0.91" stop-color="#FDC347"/>
<stop offset="1" stop-color="#FEDC31"/>
</linearGradient>
<linearGradient id="paint18_linear_38_10" x1="216.964" y1="142.335" x2="247.492" y2="-85.0739" gradientUnits="userSpaceOnUse">
<stop stop-color="#33D0E0"/>
<stop offset="0.24" stop-color="#987CDB"/>
<stop offset="0.48" stop-color="#FA2CD7"/>
<stop offset="0.73" stop-color="#FC8682"/>
<stop offset="0.91" stop-color="#FDC347"/>
<stop offset="1" stop-color="#FEDC31"/>
</linearGradient>
<linearGradient id="paint19_linear_38_10" x1="216.964" y1="142.335" x2="247.492" y2="-85.0739" gradientUnits="userSpaceOnUse">
<stop stop-color="#33D0E0"/>
<stop offset="0.24" stop-color="#987CDB"/>
<stop offset="0.48" stop-color="#FA2CD7"/>
<stop offset="0.73" stop-color="#FC8682"/>
<stop offset="0.91" stop-color="#FDC347"/>
<stop offset="1" stop-color="#FEDC31"/>
</linearGradient>
<linearGradient id="paint20_linear_38_10" x1="218.997" y1="142.604" x2="249.525" y2="-84.7925" gradientUnits="userSpaceOnUse">
<stop stop-color="#33D0E0"/>
<stop offset="0.24" stop-color="#987CDB"/>
<stop offset="0.48" stop-color="#FA2CD7"/>
<stop offset="0.73" stop-color="#FC8682"/>
<stop offset="0.91" stop-color="#FDC347"/>
<stop offset="1" stop-color="#FEDC31"/>
</linearGradient>
<linearGradient id="paint21_linear_38_10" x1="215.736" y1="142.159" x2="246.266" y2="-85.2495" gradientUnits="userSpaceOnUse">
<stop stop-color="#33D0E0"/>
<stop offset="0.24" stop-color="#987CDB"/>
<stop offset="0.48" stop-color="#FA2CD7"/>
<stop offset="0.73" stop-color="#FC8682"/>
<stop offset="0.91" stop-color="#FDC347"/>
<stop offset="1" stop-color="#FEDC31"/>
</linearGradient>
<linearGradient id="paint22_linear_38_10" x1="220.42" y1="142.783" x2="250.949" y2="-84.6133" gradientUnits="userSpaceOnUse">
<stop stop-color="#33D0E0"/>
<stop offset="0.24" stop-color="#987CDB"/>
<stop offset="0.48" stop-color="#FA2CD7"/>
<stop offset="0.73" stop-color="#FC8682"/>
<stop offset="0.91" stop-color="#FDC347"/>
<stop offset="1" stop-color="#FEDC31"/>
</linearGradient>
<linearGradient id="paint23_linear_38_10" x1="220.42" y1="142.783" x2="250.949" y2="-84.6133" gradientUnits="userSpaceOnUse">
<stop stop-color="#33D0E0"/>
<stop offset="0.24" stop-color="#987CDB"/>
<stop offset="0.48" stop-color="#FA2CD7"/>
<stop offset="0.73" stop-color="#FC8682"/>
<stop offset="0.91" stop-color="#FDC347"/>
<stop offset="1" stop-color="#FEDC31"/>
</linearGradient>
<linearGradient id="paint24_linear_38_10" x1="223.987" y1="143.282" x2="254.516" y2="-84.126" gradientUnits="userSpaceOnUse">
<stop stop-color="#33D0E0"/>
<stop offset="0.24" stop-color="#987CDB"/>
<stop offset="0.48" stop-color="#FA2CD7"/>
<stop offset="0.73" stop-color="#FC8682"/>
<stop offset="0.91" stop-color="#FDC347"/>
<stop offset="1" stop-color="#FEDC31"/>
</linearGradient>
<linearGradient id="paint25_linear_38_10" x1="194.024" y1="139.246" x2="224.553" y2="-88.15" gradientUnits="userSpaceOnUse">
<stop stop-color="#33D0E0"/>
<stop offset="0.24" stop-color="#987CDB"/>
<stop offset="0.48" stop-color="#FA2CD7"/>
<stop offset="0.73" stop-color="#FC8682"/>
<stop offset="0.91" stop-color="#FDC347"/>
<stop offset="1" stop-color="#FEDC31"/>
</linearGradient>
<linearGradient id="paint26_linear_38_10" x1="191.659" y1="138.937" x2="222.188" y2="-88.4699" gradientUnits="userSpaceOnUse">
<stop stop-color="#33D0E0"/>
<stop offset="0.24" stop-color="#987CDB"/>
<stop offset="0.48" stop-color="#FA2CD7"/>
<stop offset="0.73" stop-color="#FC8682"/>
<stop offset="0.91" stop-color="#FDC347"/>
<stop offset="1" stop-color="#FEDC31"/>
</linearGradient>
<linearGradient id="paint27_linear_38_10" x1="164.25" y1="135.247" x2="194.779" y2="-92.1482" gradientUnits="userSpaceOnUse">
<stop stop-color="#33D0E0"/>
<stop offset="0.24" stop-color="#987CDB"/>
<stop offset="0.48" stop-color="#FA2CD7"/>
<stop offset="0.73" stop-color="#FC8682"/>
<stop offset="0.91" stop-color="#FDC347"/>
<stop offset="1" stop-color="#FEDC31"/>
</linearGradient>
<linearGradient id="paint28_linear_38_10" x1="173.684" y1="136.523" x2="204.225" y2="-90.8851" gradientUnits="userSpaceOnUse">
<stop stop-color="#33D0E0"/>
<stop offset="0.24" stop-color="#987CDB"/>
<stop offset="0.48" stop-color="#FA2CD7"/>
<stop offset="0.73" stop-color="#FC8682"/>
<stop offset="0.91" stop-color="#FDC347"/>
<stop offset="1" stop-color="#FEDC31"/>
</linearGradient>
<linearGradient id="paint29_linear_38_10" x1="-51.149" y1="106.327" x2="-20.62" y2="-121.068" gradientUnits="userSpaceOnUse">
<stop stop-color="#33D0E0"/>
<stop offset="0.24" stop-color="#987CDB"/>
<stop offset="0.48" stop-color="#FA2CD7"/>
<stop offset="0.73" stop-color="#FC8682"/>
<stop offset="0.91" stop-color="#FDC347"/>
<stop offset="1" stop-color="#FEDC31"/>
</linearGradient>
<linearGradient id="paint30_linear_38_10" x1="-42.5822" y1="107.479" x2="-12.0532" y2="-119.916" gradientUnits="userSpaceOnUse">
<stop stop-color="#33D0E0"/>
<stop offset="0.24" stop-color="#987CDB"/>
<stop offset="0.48" stop-color="#FA2CD7"/>
<stop offset="0.73" stop-color="#FC8682"/>
<stop offset="0.91" stop-color="#FDC347"/>
<stop offset="1" stop-color="#FEDC31"/>
</linearGradient>
<linearGradient id="paint31_linear_38_10" x1="-34.0274" y1="108.629" x2="-3.48605" y2="-118.766" gradientUnits="userSpaceOnUse">
<stop stop-color="#33D0E0"/>
<stop offset="0.24" stop-color="#987CDB"/>
<stop offset="0.48" stop-color="#FA2CD7"/>
<stop offset="0.73" stop-color="#FC8682"/>
<stop offset="0.91" stop-color="#FDC347"/>
<stop offset="1" stop-color="#FEDC31"/>
</linearGradient>
<linearGradient id="paint32_linear_38_10" x1="-25.4606" y1="109.781" x2="5.06843" y2="-117.626" gradientUnits="userSpaceOnUse">
<stop stop-color="#33D0E0"/>
<stop offset="0.24" stop-color="#987CDB"/>
<stop offset="0.48" stop-color="#FA2CD7"/>
<stop offset="0.73" stop-color="#FC8682"/>
<stop offset="0.91" stop-color="#FDC347"/>
<stop offset="1" stop-color="#FEDC31"/>
</linearGradient>
<linearGradient id="paint33_linear_38_10" x1="-16.8934" y1="110.933" x2="13.6356" y2="-116.475" gradientUnits="userSpaceOnUse">
<stop stop-color="#33D0E0"/>
<stop offset="0.24" stop-color="#987CDB"/>
<stop offset="0.48" stop-color="#FA2CD7"/>
<stop offset="0.73" stop-color="#FC8682"/>
<stop offset="0.91" stop-color="#FDC347"/>
<stop offset="1" stop-color="#FEDC31"/>
</linearGradient>
<linearGradient id="paint34_linear_38_10" x1="-8.33883" y1="112.083" x2="22.1902" y2="-115.324" gradientUnits="userSpaceOnUse">
<stop stop-color="#33D0E0"/>
<stop offset="0.24" stop-color="#987CDB"/>
<stop offset="0.48" stop-color="#FA2CD7"/>
<stop offset="0.73" stop-color="#FC8682"/>
<stop offset="0.91" stop-color="#FDC347"/>
<stop offset="1" stop-color="#FEDC31"/>
</linearGradient>
<linearGradient id="paint35_linear_38_10" x1="0.227827" y1="113.236" x2="30.7568" y2="-114.172" gradientUnits="userSpaceOnUse">
<stop stop-color="#33D0E0"/>
<stop offset="0.24" stop-color="#987CDB"/>
<stop offset="0.48" stop-color="#FA2CD7"/>
<stop offset="0.73" stop-color="#FC8682"/>
<stop offset="0.91" stop-color="#FDC347"/>
<stop offset="1" stop-color="#FEDC31"/>
</linearGradient>
<linearGradient id="paint36_linear_38_10" x1="8.78227" y1="114.373" x2="39.3237" y2="-113.022" gradientUnits="userSpaceOnUse">
<stop stop-color="#33D0E0"/>
<stop offset="0.24" stop-color="#987CDB"/>
<stop offset="0.48" stop-color="#FA2CD7"/>
<stop offset="0.73" stop-color="#FC8682"/>
<stop offset="0.91" stop-color="#FDC347"/>
<stop offset="1" stop-color="#FEDC31"/>
</linearGradient>
<linearGradient id="paint37_linear_38_10" x1="17.3246" y1="115.524" x2="47.8536" y2="-111.883" gradientUnits="userSpaceOnUse">
<stop stop-color="#33D0E0"/>
<stop offset="0.24" stop-color="#987CDB"/>
<stop offset="0.48" stop-color="#FA2CD7"/>
<stop offset="0.73" stop-color="#FC8682"/>
<stop offset="0.91" stop-color="#FDC347"/>
<stop offset="1" stop-color="#FEDC31"/>
</linearGradient>
<linearGradient id="paint38_linear_38_10" x1="175.862" y1="-33.9882" x2="26.3741" y2="160.773" gradientUnits="userSpaceOnUse">
<stop stop-color="#33D0E0"/>
<stop offset="0.24" stop-color="#987CDB"/>
<stop offset="0.48" stop-color="#FA2CD7"/>
<stop offset="0.73" stop-color="#FC8682"/>
<stop offset="0.91" stop-color="#FDC347"/>
<stop offset="1" stop-color="#FEDC31"/>
</linearGradient>
<linearGradient id="paint39_linear_38_10" x1="168.892" y1="-39.3359" x2="19.3918" y2="155.425" gradientUnits="userSpaceOnUse">
<stop stop-color="#33D0E0"/>
<stop offset="0.24" stop-color="#987CDB"/>
<stop offset="0.48" stop-color="#FA2CD7"/>
<stop offset="0.73" stop-color="#FC8682"/>
<stop offset="0.91" stop-color="#FDC347"/>
<stop offset="1" stop-color="#FEDC31"/>
</linearGradient>
<linearGradient id="paint40_linear_38_10" x1="166.033" y1="-41.5277" x2="16.5448" y2="153.234" gradientUnits="userSpaceOnUse">
<stop stop-color="#33D0E0"/>
<stop offset="0.24" stop-color="#987CDB"/>
<stop offset="0.48" stop-color="#FA2CD7"/>
<stop offset="0.73" stop-color="#FC8682"/>
<stop offset="0.91" stop-color="#FDC347"/>
<stop offset="1" stop-color="#FEDC31"/>
</linearGradient>
<linearGradient id="paint41_linear_38_10" x1="172.916" y1="-36.253" x2="23.4156" y2="158.509" gradientUnits="userSpaceOnUse">
<stop stop-color="#33D0E0"/>
<stop offset="0.24" stop-color="#987CDB"/>
<stop offset="0.48" stop-color="#FA2CD7"/>
<stop offset="0.73" stop-color="#FC8682"/>
<stop offset="0.91" stop-color="#FDC347"/>
<stop offset="1" stop-color="#FEDC31"/>
</linearGradient>
<linearGradient id="paint42_linear_38_10" x1="169.388" y1="-38.9651" x2="19.8875" y2="155.797" gradientUnits="userSpaceOnUse">
<stop stop-color="#33D0E0"/>
<stop offset="0.24" stop-color="#987CDB"/>
<stop offset="0.48" stop-color="#FA2CD7"/>
<stop offset="0.73" stop-color="#FC8682"/>
<stop offset="0.91" stop-color="#FDC347"/>
<stop offset="1" stop-color="#FEDC31"/>
</linearGradient>
<linearGradient id="paint43_linear_38_10" x1="274.963" y1="42.0695" x2="125.462" y2="236.83" gradientUnits="userSpaceOnUse">
<stop stop-color="#33D0E0"/>
<stop offset="0.24" stop-color="#987CDB"/>
<stop offset="0.48" stop-color="#FA2CD7"/>
<stop offset="0.73" stop-color="#FC8682"/>
<stop offset="0.91" stop-color="#FDC347"/>
<stop offset="1" stop-color="#FEDC31"/>
</linearGradient>
<linearGradient id="paint44_linear_38_10" x1="294.005" y1="56.6955" x2="144.504" y2="251.457" gradientUnits="userSpaceOnUse">
<stop stop-color="#33D0E0"/>
<stop offset="0.24" stop-color="#987CDB"/>
<stop offset="0.48" stop-color="#FA2CD7"/>
<stop offset="0.73" stop-color="#FC8682"/>
<stop offset="0.91" stop-color="#FDC347"/>
<stop offset="1" stop-color="#FEDC31"/>
</linearGradient>
<linearGradient id="paint45_linear_38_10" x1="285.872" y1="50.4359" x2="136.372" y2="245.213" gradientUnits="userSpaceOnUse">
<stop stop-color="#33D0E0"/>
<stop offset="0.24" stop-color="#987CDB"/>
<stop offset="0.48" stop-color="#FA2CD7"/>
<stop offset="0.73" stop-color="#FC8682"/>
<stop offset="0.91" stop-color="#FDC347"/>
<stop offset="1" stop-color="#FEDC31"/>
</linearGradient>
<linearGradient id="paint46_linear_38_10" x1="270.705" y1="38.8067" x2="121.217" y2="233.581" gradientUnits="userSpaceOnUse">
<stop stop-color="#33D0E0"/>
<stop offset="0.24" stop-color="#987CDB"/>
<stop offset="0.48" stop-color="#FA2CD7"/>
<stop offset="0.73" stop-color="#FC8682"/>
<stop offset="0.91" stop-color="#FDC347"/>
<stop offset="1" stop-color="#FEDC31"/>
</linearGradient>
<linearGradient id="paint47_linear_38_10" x1="280.846" y1="46.5649" x2="131.345" y2="241.339" gradientUnits="userSpaceOnUse">
<stop stop-color="#33D0E0"/>
<stop offset="0.24" stop-color="#987CDB"/>
<stop offset="0.48" stop-color="#FA2CD7"/>
<stop offset="0.73" stop-color="#FC8682"/>
<stop offset="0.91" stop-color="#FDC347"/>
<stop offset="1" stop-color="#FEDC31"/>
</linearGradient>
<linearGradient id="paint48_linear_38_10" x1="249.486" y1="22.5258" x2="99.9982" y2="217.287" gradientUnits="userSpaceOnUse">
<stop stop-color="#33D0E0"/>
<stop offset="0.24" stop-color="#987CDB"/>
<stop offset="0.48" stop-color="#FA2CD7"/>
<stop offset="0.73" stop-color="#FC8682"/>
<stop offset="0.91" stop-color="#FDC347"/>
<stop offset="1" stop-color="#FEDC31"/>
</linearGradient>
<linearGradient id="paint49_linear_38_10" x1="110.026" y1="-84.5234" x2="-39.4733" y2="110.239" gradientUnits="userSpaceOnUse">
<stop stop-color="#33D0E0"/>
<stop offset="0.24" stop-color="#987CDB"/>
<stop offset="0.48" stop-color="#FA2CD7"/>
<stop offset="0.73" stop-color="#FC8682"/>
<stop offset="0.91" stop-color="#FDC347"/>
<stop offset="1" stop-color="#FEDC31"/>
</linearGradient>
<linearGradient id="paint50_linear_38_10" x1="109.382" y1="-85.0191" x2="-40.1182" y2="109.743" gradientUnits="userSpaceOnUse">
<stop stop-color="#33D0E0"/>
<stop offset="0.24" stop-color="#987CDB"/>
<stop offset="0.48" stop-color="#FA2CD7"/>
<stop offset="0.73" stop-color="#FC8682"/>
<stop offset="0.91" stop-color="#FDC347"/>
<stop offset="1" stop-color="#FEDC31"/>
</linearGradient>
<linearGradient id="paint51_linear_38_10" x1="117.268" y1="-78.9649" x2="-32.2323" y2="115.797" gradientUnits="userSpaceOnUse">
<stop stop-color="#33D0E0"/>
<stop offset="0.24" stop-color="#987CDB"/>
<stop offset="0.48" stop-color="#FA2CD7"/>
<stop offset="0.73" stop-color="#FC8682"/>
<stop offset="0.91" stop-color="#FDC347"/>
<stop offset="1" stop-color="#FEDC31"/>
</linearGradient>
<linearGradient id="paint52_linear_38_10" x1="116.662" y1="-79.435" x2="-32.8391" y2="115.326" gradientUnits="userSpaceOnUse">
<stop stop-color="#33D0E0"/>
<stop offset="0.24" stop-color="#987CDB"/>
<stop offset="0.48" stop-color="#FA2CD7"/>
<stop offset="0.73" stop-color="#FC8682"/>
<stop offset="0.91" stop-color="#FDC347"/>
<stop offset="1" stop-color="#FEDC31"/>
</linearGradient>
<linearGradient id="paint53_linear_38_10" x1="123.682" y1="-74.0375" x2="-25.8064" y2="120.725" gradientUnits="userSpaceOnUse">
<stop stop-color="#33D0E0"/>
<stop offset="0.24" stop-color="#987CDB"/>
<stop offset="0.48" stop-color="#FA2CD7"/>
<stop offset="0.73" stop-color="#FC8682"/>
<stop offset="0.91" stop-color="#FDC347"/>
<stop offset="1" stop-color="#FEDC31"/>
</linearGradient>
<linearGradient id="paint54_linear_38_10" x1="123.087" y1="-74.5084" x2="-26.4134" y2="120.265" gradientUnits="userSpaceOnUse">
<stop stop-color="#33D0E0"/>
<stop offset="0.24" stop-color="#987CDB"/>
<stop offset="0.48" stop-color="#FA2CD7"/>
<stop offset="0.73" stop-color="#FC8682"/>
<stop offset="0.91" stop-color="#FDC347"/>
<stop offset="1" stop-color="#FEDC31"/>
</linearGradient>
<linearGradient id="paint55_linear_38_10" x1="181.322" y1="-29.7916" x2="31.8339" y2="164.97" gradientUnits="userSpaceOnUse">
<stop stop-color="#33D0E0"/>
<stop offset="0.24" stop-color="#987CDB"/>
<stop offset="0.48" stop-color="#FA2CD7"/>
<stop offset="0.73" stop-color="#FC8682"/>
<stop offset="0.91" stop-color="#FDC347"/>
<stop offset="1" stop-color="#FEDC31"/>
</linearGradient>
<linearGradient id="paint56_linear_38_10" x1="233.974" y1="10.599" x2="84.4856" y2="205.362" gradientUnits="userSpaceOnUse">
<stop stop-color="#33D0E0"/>
<stop offset="0.24" stop-color="#987CDB"/>
<stop offset="0.48" stop-color="#FA2CD7"/>
<stop offset="0.73" stop-color="#FC8682"/>
<stop offset="0.91" stop-color="#FDC347"/>
<stop offset="1" stop-color="#FEDC31"/>
</linearGradient>
<linearGradient id="paint57_linear_38_10" x1="233.974" y1="10.599" x2="84.4856" y2="205.362" gradientUnits="userSpaceOnUse">
<stop stop-color="#33D0E0"/>
<stop offset="0.24" stop-color="#987CDB"/>
<stop offset="0.48" stop-color="#FA2CD7"/>
<stop offset="0.73" stop-color="#FC8682"/>
<stop offset="0.91" stop-color="#FDC347"/>
<stop offset="1" stop-color="#FEDC31"/>
</linearGradient>
<linearGradient id="paint58_linear_38_10" x1="232.838" y1="9.75381" x2="83.3366" y2="204.517" gradientUnits="userSpaceOnUse">
<stop stop-color="#33D0E0"/>
<stop offset="0.24" stop-color="#987CDB"/>
<stop offset="0.48" stop-color="#FA2CD7"/>
<stop offset="0.73" stop-color="#FC8682"/>
<stop offset="0.91" stop-color="#FDC347"/>
<stop offset="1" stop-color="#FEDC31"/>
</linearGradient>
<linearGradient id="paint59_linear_38_10" x1="230.642" y1="8.05862" x2="81.1405" y2="202.82" gradientUnits="userSpaceOnUse">
<stop stop-color="#33D0E0"/>
<stop offset="0.24" stop-color="#987CDB"/>
<stop offset="0.48" stop-color="#FA2CD7"/>
<stop offset="0.73" stop-color="#FC8682"/>
<stop offset="0.91" stop-color="#FDC347"/>
<stop offset="1" stop-color="#FEDC31"/>
</linearGradient>
<linearGradient id="paint60_linear_38_10" x1="236.117" y1="12.2602" x2="86.616" y2="207.022" gradientUnits="userSpaceOnUse">
<stop stop-color="#33D0E0"/>
<stop offset="0.24" stop-color="#987CDB"/>
<stop offset="0.48" stop-color="#FA2CD7"/>
<stop offset="0.73" stop-color="#FC8682"/>
<stop offset="0.91" stop-color="#FDC347"/>
<stop offset="1" stop-color="#FEDC31"/>
</linearGradient>
<linearGradient id="paint61_linear_38_10" x1="236.117" y1="12.2602" x2="86.616" y2="207.022" gradientUnits="userSpaceOnUse">
<stop stop-color="#33D0E0"/>
<stop offset="0.24" stop-color="#987CDB"/>
<stop offset="0.48" stop-color="#FA2CD7"/>
<stop offset="0.73" stop-color="#FC8682"/>
<stop offset="0.91" stop-color="#FDC347"/>
<stop offset="1" stop-color="#FEDC31"/>
</linearGradient>
<linearGradient id="paint62_linear_38_10" x1="266.711" y1="35.7744" x2="117.222" y2="230.537" gradientUnits="userSpaceOnUse">
<stop stop-color="#33D0E0"/>
<stop offset="0.24" stop-color="#987CDB"/>
<stop offset="0.48" stop-color="#FA2CD7"/>
<stop offset="0.73" stop-color="#FC8682"/>
<stop offset="0.91" stop-color="#FDC347"/>
<stop offset="1" stop-color="#FEDC31"/>
</linearGradient>
<linearGradient id="paint63_linear_38_10" x1="228.44" y1="6.37117" x2="78.9517" y2="201.132" gradientUnits="userSpaceOnUse">
<stop stop-color="#33D0E0"/>
<stop offset="0.24" stop-color="#987CDB"/>
<stop offset="0.48" stop-color="#FA2CD7"/>
<stop offset="0.73" stop-color="#FC8682"/>
<stop offset="0.91" stop-color="#FDC347"/>
<stop offset="1" stop-color="#FEDC31"/>
</linearGradient>
<linearGradient id="paint64_linear_38_10" x1="232.204" y1="9.25737" x2="82.7034" y2="204.019" gradientUnits="userSpaceOnUse">
<stop stop-color="#33D0E0"/>
<stop offset="0.24" stop-color="#987CDB"/>
<stop offset="0.48" stop-color="#FA2CD7"/>
<stop offset="0.73" stop-color="#FC8682"/>
<stop offset="0.91" stop-color="#FDC347"/>
<stop offset="1" stop-color="#FEDC31"/>
</linearGradient>
<linearGradient id="paint65_linear_38_10" x1="205.327" y1="-11.3812" x2="55.8261" y2="183.393" gradientUnits="userSpaceOnUse">
<stop stop-color="#33D0E0"/>
<stop offset="0.24" stop-color="#987CDB"/>
<stop offset="0.48" stop-color="#FA2CD7"/>
<stop offset="0.73" stop-color="#FC8682"/>
<stop offset="0.91" stop-color="#FDC347"/>
<stop offset="1" stop-color="#FEDC31"/>
</linearGradient>
<linearGradient id="paint66_linear_38_10" x1="214.278" y1="-4.50998" x2="64.777" y2="190.252" gradientUnits="userSpaceOnUse">
<stop stop-color="#33D0E0"/>
<stop offset="0.24" stop-color="#987CDB"/>
<stop offset="0.48" stop-color="#FA2CD7"/>
<stop offset="0.73" stop-color="#FC8682"/>
<stop offset="0.91" stop-color="#FDC347"/>
<stop offset="1" stop-color="#FEDC31"/>
</linearGradient>
<linearGradient id="paint67_linear_38_10" x1="39.9305" y1="-138.326" x2="-109.558" y2="56.4356" gradientUnits="userSpaceOnUse">
<stop stop-color="#33D0E0"/>
<stop offset="0.24" stop-color="#987CDB"/>
<stop offset="0.48" stop-color="#FA2CD7"/>
<stop offset="0.73" stop-color="#FC8682"/>
<stop offset="0.91" stop-color="#FDC347"/>
<stop offset="1" stop-color="#FEDC31"/>
</linearGradient>
<linearGradient id="paint68_linear_38_10" x1="53.8454" y1="-127.641" x2="-95.6427" y2="67.1204" gradientUnits="userSpaceOnUse">
<stop stop-color="#33D0E0"/>
<stop offset="0.24" stop-color="#987CDB"/>
<stop offset="0.48" stop-color="#FA2CD7"/>
<stop offset="0.73" stop-color="#FC8682"/>
<stop offset="0.91" stop-color="#FDC347"/>
<stop offset="1" stop-color="#FEDC31"/>
</linearGradient>
<linearGradient id="paint69_linear_38_10" x1="67.7607" y1="-116.971" x2="-81.7399" y2="77.8031" gradientUnits="userSpaceOnUse">
<stop stop-color="#33D0E0"/>
<stop offset="0.24" stop-color="#987CDB"/>
<stop offset="0.48" stop-color="#FA2CD7"/>
<stop offset="0.73" stop-color="#FC8682"/>
<stop offset="0.91" stop-color="#FDC347"/>
<stop offset="1" stop-color="#FEDC31"/>
</linearGradient>
<linearGradient id="paint70_linear_38_10" x1="81.6633" y1="-106.286" x2="-67.8248" y2="88.4753" gradientUnits="userSpaceOnUse">
<stop stop-color="#33D0E0"/>
<stop offset="0.24" stop-color="#987CDB"/>
<stop offset="0.48" stop-color="#FA2CD7"/>
<stop offset="0.73" stop-color="#FC8682"/>
<stop offset="0.91" stop-color="#FDC347"/>
<stop offset="1" stop-color="#FEDC31"/>
</linearGradient>
<linearGradient id="paint71_linear_38_10" x1="95.5786" y1="-95.6147" x2="-53.9219" y2="99.1471" gradientUnits="userSpaceOnUse">
<stop stop-color="#33D0E0"/>
<stop offset="0.24" stop-color="#987CDB"/>
<stop offset="0.48" stop-color="#FA2CD7"/>
<stop offset="0.73" stop-color="#FC8682"/>
<stop offset="0.91" stop-color="#FDC347"/>
<stop offset="1" stop-color="#FEDC31"/>
</linearGradient>
<linearGradient id="paint72_linear_38_10" x1="109.481" y1="-84.9439" x2="-40.0068" y2="109.83" gradientUnits="userSpaceOnUse">
<stop stop-color="#33D0E0"/>
<stop offset="0.24" stop-color="#987CDB"/>
<stop offset="0.48" stop-color="#FA2CD7"/>
<stop offset="0.73" stop-color="#FC8682"/>
<stop offset="0.91" stop-color="#FDC347"/>
<stop offset="1" stop-color="#FEDC31"/>
</linearGradient>
<linearGradient id="paint73_linear_38_10" x1="123.396" y1="-74.259" x2="-26.1044" y2="120.503" gradientUnits="userSpaceOnUse">
<stop stop-color="#33D0E0"/>
<stop offset="0.24" stop-color="#987CDB"/>
<stop offset="0.48" stop-color="#FA2CD7"/>
<stop offset="0.73" stop-color="#FC8682"/>
<stop offset="0.91" stop-color="#FDC347"/>
<stop offset="1" stop-color="#FEDC31"/>
</linearGradient>
<linearGradient id="paint74_linear_38_10" x1="137.299" y1="-63.5891" x2="-12.1894" y2="131.173" gradientUnits="userSpaceOnUse">
<stop stop-color="#33D0E0"/>
<stop offset="0.24" stop-color="#987CDB"/>
<stop offset="0.48" stop-color="#FA2CD7"/>
<stop offset="0.73" stop-color="#FC8682"/>
<stop offset="0.91" stop-color="#FDC347"/>
<stop offset="1" stop-color="#FEDC31"/>
</linearGradient>
<linearGradient id="paint75_linear_38_10" x1="151.214" y1="-52.9176" x2="1.7135" y2="141.844" gradientUnits="userSpaceOnUse">
<stop stop-color="#33D0E0"/>
<stop offset="0.24" stop-color="#987CDB"/>
<stop offset="0.48" stop-color="#FA2CD7"/>
<stop offset="0.73" stop-color="#FC8682"/>
<stop offset="0.91" stop-color="#FDC347"/>
<stop offset="1" stop-color="#FEDC31"/>
</linearGradient>
</defs>
</svg>
