<svg width="28" height="15" viewBox="0 0 28 15" fill="none" xmlns="http://www.w3.org/2000/svg">
<g filter="url(#filter0_d_3634_54231)">
<mask id="path-1-outside-1_3634_54231" maskUnits="userSpaceOnUse" x="1" y="-0.000976562" width="26" height="13" fill="black">
<rect fill="white" x="1" y="-0.000976562" width="26" height="13"/>
<path fill-rule="evenodd" clip-rule="evenodd" d="M21.9448 1.22317C21.826 1.08111 21.6504 0.999023 21.4652 0.999023H16.2752C15.7448 0.999023 15.4554 1.61806 15.7956 2.02499L17.5496 4.12299H3.54214C3.25896 4.12299 3.01116 4.31337 2.93819 4.58699L2.02145 8.02479C1.91563 8.4216 2.21472 8.81089 2.6254 8.81089H17.2796L15.7907 10.6001C15.4519 11.0073 15.7414 11.6249 16.2712 11.6249L21.4644 11.6249C21.65 11.6249 21.8261 11.5424 21.9448 11.3997L25.8554 6.7004C26.0485 6.46831 26.0481 6.13133 25.8545 5.89967L21.9448 1.22317Z"/>
</mask>
<path fill-rule="evenodd" clip-rule="evenodd" d="M21.9448 1.22317C21.826 1.08111 21.6504 0.999023 21.4652 0.999023H16.2752C15.7448 0.999023 15.4554 1.61806 15.7956 2.02499L17.5496 4.12299H3.54214C3.25896 4.12299 3.01116 4.31337 2.93819 4.58699L2.02145 8.02479C1.91563 8.4216 2.21472 8.81089 2.6254 8.81089H17.2796L15.7907 10.6001C15.4519 11.0073 15.7414 11.6249 16.2712 11.6249L21.4644 11.6249C21.65 11.6249 21.8261 11.5424 21.9448 11.3997L25.8554 6.7004C26.0485 6.46831 26.0481 6.13133 25.8545 5.89967L21.9448 1.22317Z" fill="#FEFDFB"/>
<path d="M21.9448 1.22317L21.4652 1.62408V1.62408L21.9448 1.22317ZM15.7956 2.02499L16.2752 1.62408V1.62408L15.7956 2.02499ZM17.5496 4.12299V4.74804H18.8869L18.0291 3.72208L17.5496 4.12299ZM2.93819 4.58699L3.54214 4.74804V4.74804L2.93819 4.58699ZM2.02145 8.02479L1.4175 7.86374L1.4175 7.86374L2.02145 8.02479ZM17.2796 8.81089L17.7601 9.21071L18.6129 8.18584H17.2796V8.81089ZM15.7907 10.6001L16.2712 10.9999L15.7907 10.6001ZM16.2712 11.6249V10.9999V11.6249ZM21.4644 11.6249V12.25V11.6249ZM21.9448 11.3997L22.4253 11.7995L22.4253 11.7995L21.9448 11.3997ZM25.8554 6.7004L25.3749 6.30058L25.8554 6.7004ZM25.8545 5.89967L25.3749 6.30058L25.3749 6.30059L25.8545 5.89967ZM21.4652 1.62408V1.62408L22.4243 0.822258C22.1868 0.53815 21.8356 0.373969 21.4652 0.373969V1.62408ZM16.2752 1.62408H21.4652V0.373969H16.2752V1.62408ZM16.2752 1.62408L16.2752 1.62408V0.373969C15.2143 0.373969 14.6357 1.61204 15.3161 2.4259L16.2752 1.62408ZM18.0291 3.72208L16.2752 1.62408L15.3161 2.4259L17.07 4.5239L18.0291 3.72208ZM3.54214 4.74804H17.5496V3.49794H3.54214V4.74804ZM3.54214 4.74804V4.74804V3.49794C2.97578 3.49794 2.48017 3.8787 2.33424 4.42594L3.54214 4.74804ZM2.6254 8.18584L3.54214 4.74804L2.33424 4.42594L1.4175 7.86374L2.6254 8.18584ZM2.6254 8.18584L2.6254 8.18584L1.4175 7.86374C1.20586 8.65736 1.80404 9.43595 2.6254 9.43595V8.18584ZM17.2796 8.18584H2.6254V9.43595H17.2796V8.18584ZM16.2712 10.9999L17.7601 9.21071L16.7991 8.41108L15.3103 10.2003L16.2712 10.9999ZM16.2712 10.9999V10.9999L15.3103 10.2003C14.6326 11.0146 15.2117 12.25 16.2712 12.25V10.9999ZM21.4644 10.9999L16.2712 10.9999V12.25L21.4644 12.25V10.9999ZM21.4644 10.9999L21.4644 10.9999V12.25C21.8357 12.25 22.1878 12.0849 22.4253 11.7995L21.4644 10.9999ZM25.3749 6.30058L21.4644 10.9999L22.4253 11.7995L26.3358 7.10021L25.3749 6.30058ZM25.3749 6.30059L25.3749 6.30058L26.3358 7.10021C26.7221 6.63603 26.7213 5.96207 26.334 5.49876L25.3749 6.30059ZM21.4652 1.62408L25.3749 6.30058L26.334 5.49876L22.4243 0.822257L21.4652 1.62408Z" fill="black" mask="url(#path-1-outside-1_3634_54231)"/>
</g>
<defs>
<filter id="filter0_d_3634_54231" x="0.749458" y="0.374023" width="26.5006" height="13.7511" filterUnits="userSpaceOnUse" color-interpolation-filters="sRGB">
<feFlood flood-opacity="0" result="BackgroundImageFix"/>
<feColorMatrix in="SourceAlpha" type="matrix" values="0 0 0 0 0 0 0 0 0 0 0 0 0 0 0 0 0 0 127 0" result="hardAlpha"/>
<feOffset dy="1.25011"/>
<feGaussianBlur stdDeviation="0.312527"/>
<feComposite in2="hardAlpha" operator="out"/>
<feColorMatrix type="matrix" values="0 0 0 0 0 0 0 0 0 0 0 0 0 0 0 0 0 0 1 0"/>
<feBlend mode="normal" in2="BackgroundImageFix" result="effect1_dropShadow_3634_54231"/>
<feBlend mode="normal" in="SourceGraphic" in2="effect1_dropShadow_3634_54231" result="shape"/>
</filter>
</defs>
</svg>
