<svg width="42" height="44" viewBox="0 0 42 44" fill="none" xmlns="http://www.w3.org/2000/svg">
<mask id="path-1-outside-1_38_5" maskUnits="userSpaceOnUse" x="0" y="0" width="42" height="44" fill="black">
<rect fill="white" width="42" height="44"/>
<path d="M1 21C1 9.95431 9.95431 1 21 1V1C32.0457 1 41 9.95431 41 21V21C41 32.0457 32.0457 41 21 41V41C9.95431 41 1 32.0457 1 21V21Z"/>
</mask>
<path d="M1 21C1 9.95431 9.95431 1 21 1V1C32.0457 1 41 9.95431 41 21V21C41 32.0457 32.0457 41 21 41V41C9.95431 41 1 32.0457 1 21V21Z" fill="#C585F2"/>
<path d="M0 21C0 9.40202 9.40202 0 21 0C32.598 0 42 9.40202 42 21H40C40 10.5066 31.4934 2 21 2C10.5066 2 2 10.5066 2 21H0ZM42 23C42 34.598 32.598 44 21 44C9.40202 44 0 34.598 0 23L2 21C2 30.3888 10.5066 38 21 38C31.4934 38 40 30.3888 40 21L42 23ZM21 44C9.40202 44 0 34.598 0 23V21C0 9.40202 9.40202 0 21 0V2C10.5066 2 2 10.5066 2 21C2 30.3888 10.5066 38 21 38V44ZM21 0C32.598 0 42 9.40202 42 21V23C42 34.598 32.598 44 21 44V38C31.4934 38 40 30.3888 40 21C40 10.5066 31.4934 2 21 2V0Z" fill="#060000" mask="url(#path-1-outside-1_38_5)"/>
<g filter="url(#filter0_d_38_5)">
<path d="M28.7755 19.8682C28.7585 19.8569 28.7359 19.8523 28.719 19.841L17.8283 11.9208C17.2156 11.4784 16.2217 11.4784 15.609 11.9208C15.6033 11.9253 15.6005 11.9299 15.5977 11.9344C15.4493 12.0328 15.3295 12.1561 15.2466 12.2956C15.1637 12.4351 15.1197 12.5875 15.1177 12.7421L15.1177 28.5848C15.1208 28.7422 15.167 28.8971 15.2529 29.0386C15.3387 29.1802 15.4622 29.3048 15.6146 29.4038L15.609 29.4083C15.9173 29.6224 16.3112 29.7402 16.7187 29.7402C17.1262 29.7402 17.52 29.6224 17.8283 29.4083L28.7755 21.47C28.9197 21.3711 29.0354 21.2483 29.1148 21.1101C29.1942 20.9718 29.2353 20.8214 29.2353 20.6691C29.2353 20.5168 29.1942 20.3664 29.1148 20.2281C29.0354 20.0898 28.9197 19.967 28.7755 19.8682Z" fill="#FEFDFB"/>
<path d="M28.9283 19.6453L28.9258 19.6436C28.9059 19.6303 28.8877 19.6212 28.8751 19.6154C28.8689 19.6125 28.8629 19.6099 28.858 19.6079L17.9873 11.7022L17.9866 11.7017C17.6259 11.4413 17.1661 11.3187 16.7187 11.3187C16.2712 11.3187 15.8114 11.4413 15.4508 11.7017L15.4506 11.7014L15.4397 11.7101C15.4311 11.717 15.4233 11.7241 15.4163 11.731C15.2516 11.8462 15.1135 11.9905 15.0143 12.1575C14.9084 12.3357 14.8501 12.5342 14.8474 12.7386L14.8474 12.7386L14.8474 12.7421L14.8474 28.5848L14.8474 28.5848L14.8475 28.5902C14.8516 28.7977 14.9126 28.9988 15.0218 29.1789C15.0695 29.2575 15.1257 29.331 15.1893 29.3988L15.1578 29.4241L15.4548 29.6303C15.8123 29.8786 16.261 30.0105 16.7187 30.0105C17.1763 30.0105 17.625 29.8786 17.9825 29.6303L17.9825 29.6304L17.987 29.6271L28.9314 21.6908C29.1044 21.5716 29.2483 21.4204 29.3492 21.2447C29.451 21.0674 29.5056 20.8708 29.5056 20.6691C29.5056 20.4673 29.451 20.2707 29.3492 20.0935C29.2477 19.9168 29.1027 19.7648 28.9283 19.6453Z" stroke="#060000" stroke-width="0.540541"/>
</g>
<defs>
<filter id="filter0_d_38_5" x="14.577" y="11.0485" width="15.1989" height="20.3134" filterUnits="userSpaceOnUse" color-interpolation-filters="sRGB">
<feFlood flood-opacity="0" result="BackgroundImageFix"/>
<feColorMatrix in="SourceAlpha" type="matrix" values="0 0 0 0 0 0 0 0 0 0 0 0 0 0 0 0 0 0 127 0" result="hardAlpha"/>
<feOffset dy="1.08108"/>
<feComposite in2="hardAlpha" operator="out"/>
<feColorMatrix type="matrix" values="0 0 0 0 0.0313726 0 0 0 0 0.00784314 0 0 0 0 0.0235294 0 0 0 1 0"/>
<feBlend mode="normal" in2="BackgroundImageFix" result="effect1_dropShadow_38_5"/>
<feBlend mode="normal" in="SourceGraphic" in2="effect1_dropShadow_38_5" result="shape"/>
</filter>
</defs>
</svg>
