<svg width="21" height="23" viewBox="0 0 21 23" fill="none" xmlns="http://www.w3.org/2000/svg">
<path fill-rule="evenodd" clip-rule="evenodd" d="M20.0855 4.73993C20.0855 2.5795 18.3341 0.828125 16.1736 0.828125C14.0132 0.828125 12.2618 2.5795 12.2618 4.73993C12.2618 4.81202 12.2638 4.88366 12.2676 4.95479C12.2945 5.45052 12.0728 5.95617 11.6196 6.15881L6.67009 8.3718C6.35638 8.51206 5.99656 8.47264 5.68671 8.32404C5.1753 8.07878 4.60232 7.94141 3.99726 7.94141C1.83682 7.94141 0.0854492 9.69278 0.0854492 11.8532C0.0854492 14.0136 1.83682 15.765 3.99726 15.765C4.8598 15.765 5.65714 15.4859 6.30386 15.0129C6.6848 14.7344 7.19568 14.6403 7.60438 14.8763L11.7454 17.2671C12.0889 17.4654 12.2618 17.857 12.2618 18.2536V18.2536C12.2618 20.414 14.0132 22.1654 16.1736 22.1654C18.3341 22.1654 20.0855 20.414 20.0855 18.2536C20.0855 16.0932 18.3341 14.3418 16.1736 14.3418C15.4505 14.3418 14.7732 14.538 14.192 14.8802C13.8249 15.0963 13.3673 15.1519 12.9984 14.9389L8.03273 12.072C7.95501 12.0271 7.90906 11.943 7.90906 11.8532V11.8532C7.90906 11.779 7.907 11.7053 7.90292 11.6321C7.87525 11.1356 8.09682 10.6287 8.55076 10.4258L13.4915 8.21672C13.806 8.0761 14.1667 8.11608 14.4771 8.26568C14.9903 8.51308 15.5658 8.65174 16.1736 8.65174C18.3341 8.65174 20.0855 6.90036 20.0855 4.73993Z" fill="#FEFDFB"/>
</svg>
