<svg width="335" height="48" viewBox="0 0 335 48" fill="none" xmlns="http://www.w3.org/2000/svg">
<path d="M17.5224 0.697248H320.766C327.772 0.697248 333.091 7.00575 331.906 13.911L327.936 37.0575C327.007 42.4719 322.319 46.4344 316.826 46.4492L13.966 47.2651C7.04501 47.2838 1.73278 41.134 2.75735 34.2892L6.34422 10.3268C7.17266 4.79229 11.9263 0.697248 17.5224 0.697248Z" fill="#F3BC00" stroke="black" stroke-width="1.3945"/>
<mask id="mask0_4_11" style="mask-type:alpha" maskUnits="userSpaceOnUse" x="1" y="0" width="332" height="48">
<path d="M17.5224 0.697248H320.766C327.772 0.697248 333.091 7.00576 331.906 13.911L327.935 37.0575C327.007 42.4719 322.319 46.4344 316.826 46.4492L13.966 47.2651C7.04501 47.2838 1.73278 41.134 2.75735 34.2892L6.34422 10.3268C7.17266 4.79229 11.9263 0.697248 17.5224 0.697248Z" fill="#F3BC00" stroke="black" stroke-width="1.3945"/>
</mask>
<g mask="url(#mask0_4_11)">
<g style="mix-blend-mode:overlay" opacity="0.7">
<rect x="2.10731" y="0.348624" width="329.061" height="5.02752" rx="2.51376" fill="white"/>
<rect x="2.10731" y="0.348624" width="329.061" height="5.02752" rx="2.51376" stroke="black" stroke-width="0.697248"/>
</g>
<g style="mix-blend-mode:overlay" opacity="0.7">
<rect x="-1.41017" y="42.624" width="329.061" height="5.02752" rx="2.51376" fill="black"/>
<rect x="-1.41017" y="42.624" width="329.061" height="5.02752" rx="2.51376" stroke="black" stroke-width="0.697248"/>
</g>
<path d="M17.5393 0.697248H321.759C328.767 0.697248 334.086 7.00964 332.898 13.9166L328.916 37.063C327.984 42.4748 323.298 46.4344 317.807 46.4491L13.9721 47.2652C7.04913 47.2838 1.73638 41.1307 2.76424 34.2844L6.36183 10.3219C7.19241 4.78962 11.9451 0.697248 17.5393 0.697248Z" stroke="black" stroke-width="1.3945"/>
</g>
</svg>
