<svg width="335" height="48" viewBox="0 0 335 48" fill="none" xmlns="http://www.w3.org/2000/svg">
<path d="M5.65465 10.2235C6.5342 4.34766 11.5811 0 17.5224 0H320.766C328.205 0 333.851 6.69767 332.593 14.0289L328.623 37.1754C327.637 42.9238 322.66 47.1307 316.828 47.1464L13.9679 47.9624C6.61995 47.9822 0.980006 41.453 2.06779 34.186L5.65465 10.2235Z" fill="#F3BC00"/>
<mask id="mask0_4_11" style="mask-type:alpha" maskUnits="userSpaceOnUse" x="1" y="0" width="332" height="48">
<path d="M5.65465 10.2235C6.5342 4.34766 11.5811 0 17.5224 0H320.766C328.205 0 333.851 6.69767 332.593 14.0289L328.623 37.1754C327.637 42.9238 322.66 47.1307 316.828 47.1464L13.9679 47.9624C6.61995 47.9822 0.980006 41.453 2.06779 34.186L5.65465 10.2235Z" fill="#F3BC00"/>
</mask>
<g mask="url(#mask0_4_11)">
<g style="mix-blend-mode:overlay" opacity="0.7">
<rect x="1.75869" width="329.759" height="5.72477" rx="2.86239" fill="white"/>
</g>
<g style="mix-blend-mode:overlay" opacity="0.7">
<rect x="-1.75879" y="42.2754" width="329.759" height="5.72477" rx="2.86239" fill="black"/>
</g>
</g>
</svg>
