<svg width="16" height="20" viewBox="0 0 16 20" fill="none" xmlns="http://www.w3.org/2000/svg">
<path d="M14.9283 8.64529L14.9258 8.64364C14.9059 8.63028 14.8877 8.62115 14.8751 8.61536C14.8689 8.6125 14.8629 8.60992 14.858 8.60788L3.9873 0.7022L3.98656 0.701658C3.62594 0.441284 3.1661 0.318705 2.71866 0.318705C2.27123 0.318705 1.81138 0.441284 1.45077 0.701658L1.45056 0.701366L1.4397 0.710094C1.4311 0.717003 1.4233 0.724051 1.41629 0.730972C1.25156 0.846239 1.1135 0.99053 1.01425 1.15752C0.908374 1.33568 0.850082 1.53417 0.847429 1.73856L0.847406 1.73856L0.847406 1.74207L0.847406 17.5848L0.847351 17.5848L0.84746 17.5902C0.851633 17.7977 0.912555 17.9988 1.0218 18.1789C1.06949 18.2575 1.12573 18.331 1.18926 18.3988L1.15783 18.4241L1.45482 18.6303C1.81229 18.8786 2.26102 19.0105 2.71866 19.0105C3.17631 19.0105 3.62504 18.8786 3.98251 18.6303L3.98254 18.6304L3.987 18.6271L14.9314 10.6908C15.1044 10.5716 15.2483 10.4204 15.3492 10.2447C15.451 10.0674 15.5056 9.87084 15.5056 9.66909C15.5056 9.46733 15.451 9.27073 15.3492 9.09351C15.2477 8.91676 15.1027 8.76483 14.9283 8.64529Z" fill="#FEFDFB" stroke="#060000" stroke-width="0.540541"/>
</svg>
