<svg width="43" height="39" viewBox="0 0 43 39" fill="none" xmlns="http://www.w3.org/2000/svg">
<path d="M12.3779 0.814899H32.4945C37.6057 0.814899 41.5768 5.26661 40.9955 10.3446L38.7406 30.0399C38.2528 34.3007 34.6861 37.5422 30.3982 37.6217L10.9906 37.9813C5.62229 38.0808 1.37134 33.4706 1.90507 28.1279L3.86381 8.52079C4.30081 4.14636 7.98166 0.814899 12.3779 0.814899Z" fill="#6E22BF" stroke="#360076" stroke-width="1.6298"/>
<mask id="mask0_2_2" style="mask-type:alpha" maskUnits="userSpaceOnUse" x="2" y="0" width="40" height="39">
<path d="M2.93334 9.16584C3.04508 4.07149 7.20686 0 12.3024 0H32.5522C37.8201 0 42.053 4.34063 41.9206 9.60682L41.4252 29.3151C41.2992 34.3306 37.2454 38.3571 32.2291 38.4493L12.4584 38.8128C6.90409 38.915 2.38042 34.3752 2.50223 28.8213L2.93334 9.16584Z" fill="#F3BC00"/>
</mask>
<g mask="url(#mask0_2_2)">
<g filter="url(#filter0_ddd_2_2)">
<path d="M19.5571 28C19.2608 28 18.9798 27.8687 18.7898 27.6414L12.5349 20.1596C12.2251 19.789 12.2245 19.2499 12.5335 18.8786L18.7898 11.3604C18.9798 11.132 19.2614 11 19.5584 11H27.8668C28.7143 11 29.1776 11.9882 28.6355 12.6396L23.4437 18.8786C23.1347 19.2499 23.1354 19.789 23.4452 20.1596L28.6277 26.3586C29.172 27.0096 28.7091 28 27.8605 28H19.5571Z" fill="white"/>
</g>
<rect width="2.57672" height="7.12722" transform="matrix(0.301693 -0.953405 0.271616 0.962406 40.1304 -0.0494089)" fill="#FEFB9F"/>
<g style="mix-blend-mode:soft-light" opacity="0.7">
<path d="M3.5164 -0.0885239L33.6157 0.565424L38.7435 4.42085H3.5164V-0.0885239Z" fill="white"/>
</g>
<g style="mix-blend-mode:soft-light" opacity="0.7">
<path d="M2.45256 32.5H37.4215L32.9526 36.5L29.4526 37L2.45256 37.1514V32.5Z" fill="#360076"/>
</g>
</g>
<defs>
<filter id="filter0_ddd_2_2" x="7.30212" y="7" width="26.5666" height="28" filterUnits="userSpaceOnUse" color-interpolation-filters="sRGB">
<feFlood flood-opacity="0" result="BackgroundImageFix"/>
<feColorMatrix in="SourceAlpha" type="matrix" values="0 0 0 0 0 0 0 0 0 0 0 0 0 0 0 0 0 0 127 0" result="hardAlpha"/>
<feOffset dy="1"/>
<feGaussianBlur stdDeviation="2.5"/>
<feColorMatrix type="matrix" values="0 0 0 0 0.532764 0 0 0 0 0.0516202 0 0 0 0 0.0516202 0 0 0 0.2 0"/>
<feBlend mode="normal" in2="BackgroundImageFix" result="effect1_dropShadow_2_2"/>
<feColorMatrix in="SourceAlpha" type="matrix" values="0 0 0 0 0 0 0 0 0 0 0 0 0 0 0 0 0 0 127 0" result="hardAlpha"/>
<feOffset dy="3"/>
<feGaussianBlur stdDeviation="2"/>
<feColorMatrix type="matrix" values="0 0 0 0 0.482764 0 0 0 0 0.0467756 0 0 0 0 0.0467756 0 0 0 0.12 0"/>
<feBlend mode="normal" in2="effect1_dropShadow_2_2" result="effect2_dropShadow_2_2"/>
<feColorMatrix in="SourceAlpha" type="matrix" values="0 0 0 0 0 0 0 0 0 0 0 0 0 0 0 0 0 0 127 0" result="hardAlpha"/>
<feOffset dy="2"/>
<feGaussianBlur stdDeviation="2"/>
<feColorMatrix type="matrix" values="0 0 0 0 0.357764 0 0 0 0 0.100254 0 0 0 0 0.100254 0 0 0 0.14 0"/>
<feBlend mode="normal" in2="effect2_dropShadow_2_2" result="effect3_dropShadow_2_2"/>
<feBlend mode="normal" in="SourceGraphic" in2="effect3_dropShadow_2_2" result="shape"/>
</filter>
</defs>
</svg>
