<svg width="18" height="18" viewBox="0 0 18 18" fill="none" xmlns="http://www.w3.org/2000/svg">
<g filter="url(#filter0_d_3634_35756)">
<path d="M15.0536 15.3964C14.8583 15.5917 14.5417 15.5917 14.3464 15.3964L10.2914 11.3414C10.1113 11.1613 9.82599 11.1482 9.61119 11.2852C9.32807 11.4658 9.01809 11.6166 8.68125 11.7375C8.19375 11.9125 7.675 12 7.125 12C5.7625 12 4.6095 11.528 3.666 10.584C2.7225 9.64 2.2505 8.487 2.25 7.125C2.2495 5.763 2.7215 4.61 3.666 3.666C4.6105 2.722 5.7635 2.25 7.125 2.25C8.4865 2.25 9.63975 2.722 10.5848 3.666C11.5298 4.61 12.0015 5.763 12 7.125C12 7.675 11.9125 8.19375 11.7375 8.68125C11.6166 9.01808 11.4658 9.32806 11.2852 9.61119C11.1482 9.82599 11.1613 10.1113 11.3414 10.2914L15.3964 14.3464C15.5917 14.5417 15.5917 14.8583 15.3964 15.0536L15.0536 15.3964ZM7.125 10.5C8.0625 10.5 8.8595 10.172 9.516 9.516C10.1725 8.86 10.5005 8.063 10.5 7.125C10.4995 6.187 10.1715 5.39025 9.516 4.73475C8.8605 4.07925 8.0635 3.751 7.125 3.75C6.1865 3.749 5.38975 4.07725 4.73475 4.73475C4.07975 5.39225 3.7515 6.189 3.75 7.125C3.7485 8.061 4.07675 8.858 4.73475 9.516C5.39275 10.174 6.1895 10.502 7.125 10.5Z" fill="#FEFDFB"/>
<path d="M12.2703 7.1253C12.2718 5.69305 11.7727 4.47066 10.7758 3.47479C9.779 2.47908 8.55658 1.97973 7.125 1.97973C5.69342 1.97973 4.47122 2.47908 3.47494 3.47484C2.47858 4.47068 1.9792 5.69296 1.97973 7.1251C1.98026 8.55708 2.47956 9.77925 3.47484 10.7751C4.4702 11.7709 5.69247 12.2703 7.125 12.2703C7.70419 12.2703 8.254 12.178 8.77256 11.9919C9.1271 11.8646 9.45537 11.7052 9.75653 11.5131C9.87927 11.4348 10.0217 11.4539 10.1003 11.5326L14.1553 15.5876C14.4561 15.8884 14.9439 15.8884 15.2447 15.5876L15.5876 15.2447C15.8884 14.9439 15.8884 14.4561 15.5876 14.1553L11.5326 10.1003C11.4539 10.0217 11.4348 9.87927 11.5131 9.75653C11.7052 9.45537 11.8646 9.1271 11.9919 8.77256C12.178 8.25409 12.2702 7.70438 12.2703 7.1253ZM12.2703 7.1253L12 7.125H12.2703C12.2703 7.1251 12.2703 7.1252 12.2703 7.1253ZM7.125 10.2297L7.12442 10.2297C6.26037 10.2316 5.53273 9.93176 4.92586 9.32489C4.31899 8.71802 4.01888 7.99008 4.02027 7.12543C4.02166 6.2601 4.32206 5.53196 4.92622 4.9255C5.5298 4.31962 6.25726 4.01935 7.12471 4.02027C7.99263 4.02119 8.72071 4.32167 9.32489 4.92586C9.92907 5.53004 10.2293 6.25782 10.2297 7.12514C10.2302 7.99224 9.93009 8.72015 9.32496 9.32482C8.71972 9.9296 7.99167 10.2297 7.125 10.2297Z" stroke="#060000" stroke-width="0.540541"/>
</g>
<defs>
<filter id="filter0_d_3634_35756" x="1.70947" y="1.70947" width="14.3739" height="15.4551" filterUnits="userSpaceOnUse" color-interpolation-filters="sRGB">
<feFlood flood-opacity="0" result="BackgroundImageFix"/>
<feColorMatrix in="SourceAlpha" type="matrix" values="0 0 0 0 0 0 0 0 0 0 0 0 0 0 0 0 0 0 127 0" result="hardAlpha"/>
<feOffset dy="1.08108"/>
<feComposite in2="hardAlpha" operator="out"/>
<feColorMatrix type="matrix" values="0 0 0 0 0.0313726 0 0 0 0 0.00784314 0 0 0 0 0.0235294 0 0 0 1 0"/>
<feBlend mode="normal" in2="BackgroundImageFix" result="effect1_dropShadow_3634_35756"/>
<feBlend mode="normal" in="SourceGraphic" in2="effect1_dropShadow_3634_35756" result="shape"/>
</filter>
</defs>
</svg>
