<svg width="43" height="39" viewBox="0 0 43 39" fill="none" xmlns="http://www.w3.org/2000/svg">
<path d="M12.3779 0.814899H32.4945C37.6057 0.814899 41.5768 5.26661 40.9955 10.3446L38.7406 30.0399C38.2528 34.3007 34.6861 37.5422 30.3982 37.6217L10.9906 37.9813C5.62229 38.0808 1.37134 33.4706 1.90507 28.1279L3.86381 8.52079C4.30081 4.14636 7.98166 0.814899 12.3779 0.814899Z" fill="#6E22BF" stroke="#360076" stroke-width="1.6298"/>
<mask id="mask0_13_10" style="mask-type:alpha" maskUnits="userSpaceOnUse" x="2" y="0" width="40" height="39">
<path d="M2.93329 9.16584C3.04503 4.07149 7.20681 0 12.3024 0H32.5522C37.8201 0 42.0529 4.34063 41.9206 9.60682L41.4252 29.3151C41.2991 34.3306 37.2453 38.3571 32.2291 38.4493L12.4584 38.8128C6.90404 38.915 2.38037 34.3752 2.50218 28.8213L2.93329 9.16584Z" fill="#F3BC00"/>
</mask>
<g mask="url(#mask0_13_10)">
<g filter="url(#filter0_d_13_10)">
<path fill-rule="evenodd" clip-rule="evenodd" d="M30.0855 12.7399C30.0855 10.5795 28.3341 8.82812 26.1736 8.82812C24.0132 8.82812 22.2618 10.5795 22.2618 12.7399C22.2618 12.812 22.2638 12.8837 22.2676 12.9548C22.2945 13.4505 22.0728 13.9562 21.6196 14.1588L16.6701 16.3718C16.3564 16.5121 15.9966 16.4726 15.6867 16.324C15.1753 16.0788 14.6023 15.9414 13.9973 15.9414C11.8368 15.9414 10.0854 17.6928 10.0854 19.8532C10.0854 22.0136 11.8368 23.765 13.9973 23.765C14.8598 23.765 15.6571 23.4859 16.3039 23.0129C16.6848 22.7344 17.1957 22.6403 17.6044 22.8763L21.7454 25.2671C22.0889 25.4654 22.2618 25.857 22.2618 26.2536V26.2536C22.2618 28.414 24.0132 30.1654 26.1736 30.1654C28.3341 30.1654 30.0855 28.414 30.0855 26.2536C30.0855 24.0932 28.3341 22.3418 26.1736 22.3418C25.4505 22.3418 24.7732 22.538 24.192 22.8802C23.8249 23.0963 23.3673 23.1519 22.9984 22.9389L18.0327 20.072C17.955 20.0271 17.9091 19.943 17.9091 19.8532V19.8532C17.9091 19.779 17.907 19.7053 17.9029 19.6321C17.8753 19.1356 18.0968 18.6287 18.5508 18.4258L23.4915 16.2167C23.806 16.0761 24.1667 16.1161 24.4771 16.2657C24.9903 16.5131 25.5658 16.6517 26.1736 16.6517C28.3341 16.6517 30.0855 14.9004 30.0855 12.7399Z" fill="#FEFDFB"/>
</g>
<rect width="2.57672" height="7.12722" transform="matrix(0.301693 -0.953405 0.271616 0.962406 40.1304 -0.0488281)" fill="#FEFB9F"/>
<g style="mix-blend-mode:soft-light" opacity="0.7">
<path d="M3.51636 -0.0878906L33.6157 0.566057L38.7435 4.42148H3.51636V-0.0878906Z" fill="white"/>
</g>
<g style="mix-blend-mode:soft-light" opacity="0.7">
<path d="M2.45251 32.5H37.4215L32.9525 36.5L29.4525 37L2.45251 37.1514V32.5Z" fill="#360076"/>
</g>
</g>
<defs>
<filter id="filter0_d_13_10" x="9.08545" y="8.82812" width="22" height="24.3373" filterUnits="userSpaceOnUse" color-interpolation-filters="sRGB">
<feFlood flood-opacity="0" result="BackgroundImageFix"/>
<feColorMatrix in="SourceAlpha" type="matrix" values="0 0 0 0 0 0 0 0 0 0 0 0 0 0 0 0 0 0 127 0" result="hardAlpha"/>
<feOffset dy="2"/>
<feGaussianBlur stdDeviation="0.5"/>
<feComposite in2="hardAlpha" operator="out"/>
<feColorMatrix type="matrix" values="0 0 0 0 0.211765 0 0 0 0 0 0 0 0 0 0.462745 0 0 0 1 0"/>
<feBlend mode="normal" in2="BackgroundImageFix" result="effect1_dropShadow_13_10"/>
<feBlend mode="normal" in="SourceGraphic" in2="effect1_dropShadow_13_10" result="shape"/>
</filter>
</defs>
</svg>
